/* XPM */
static const char * h_xpm[] = {
"64 64 129 2",
"  	c None",
". 	c #FFFFFF",
"+ 	c #ECECEC",
"@ 	c #D7D7D7",
"# 	c #F5F5F5",
"$ 	c #FBFBFB",
"% 	c #EEEEEE",
"& 	c #E6E6E6",
"* 	c #F1F1F1",
"= 	c #F8F8F8",
"- 	c #E5E5E5",
"; 	c #646464",
"> 	c #545454",
", 	c #919191",
"' 	c #DBDBDB",
") 	c #C9C9C9",
"! 	c #8A8A8A",
"~ 	c #4C4C4C",
"{ 	c #3F3F3F",
"] 	c #9A9A9A",
"^ 	c #EDEDED",
"/ 	c #E4E4E4",
"( 	c #717171",
"_ 	c #000000",
": 	c #1B1B1B",
"< 	c #696969",
"[ 	c #999999",
"} 	c #2C2C2C",
"| 	c #010101",
"1 	c #252525",
"2 	c #737373",
"3 	c #C0C0C0",
"4 	c #F3F3F3",
"5 	c #C8C8C8",
"6 	c #0D0D0D",
"7 	c #141414",
"8 	c #0A0A0A",
"9 	c #2D2D2D",
"0 	c #6B6B6B",
"a 	c #A4A4A4",
"b 	c #D0D0D0",
"c 	c #EAEAEA",
"d 	c #F9F9F9",
"e 	c #FDFDFD",
"f 	c #FEFEFE",
"g 	c #FAFAFA",
"h 	c #C1C1C1",
"i 	c #939393",
"j 	c #484848",
"k 	c #090909",
"l 	c #272727",
"m 	c #2E2E2E",
"n 	c #343434",
"o 	c #444444",
"p 	c #616161",
"q 	c #7C7C7C",
"r 	c #989898",
"s 	c #ACACAC",
"t 	c #B4B4B4",
"u 	c #BEBEBE",
"v 	c #D1D1D1",
"w 	c #FCFCFC",
"x 	c #F4F4F4",
"y 	c #F6F6F6",
"z 	c #F2F2F2",
"A 	c #E1E1E1",
"B 	c #BBBBBB",
"C 	c #858585",
"D 	c #7F7F7F",
"E 	c #808080",
"F 	c #787878",
"G 	c #414141",
"H 	c #131313",
"I 	c #040404",
"J 	c #111111",
"K 	c #202020",
"L 	c #474747",
"M 	c #6A6A6A",
"N 	c #A1A1A1",
"O 	c #A7A7A7",
"P 	c #A6A6A6",
"Q 	c #818181",
"R 	c #6C6C6C",
"S 	c #666666",
"T 	c #707070",
"U 	c #7E7E7E",
"V 	c #4E4E4E",
"W 	c #383838",
"X 	c #303030",
"Y 	c #2A2A2A",
"Z 	c #0C0C0C",
"` 	c #0F0F0F",
" .	c #5C5C5C",
"..	c #878787",
"+.	c #A5A5A5",
"@.	c #F0F0F0",
"#.	c #B5B5B5",
"$.	c #888888",
"%.	c #9E9E9E",
"&.	c #B8B8B8",
"*.	c #7B7B7B",
"=.	c #7D7D7D",
"-.	c #838383",
";.	c #868686",
">.	c #969696",
",.	c #8F8F8F",
"'.	c #606060",
").	c #6E6E6E",
"!.	c #AFAFAF",
"~.	c #C2C2C2",
"{.	c #CCCCCC",
"].	c #9F9F9F",
"^.	c #686868",
"/.	c #1E1E1E",
"(.	c #676767",
"_.	c #393939",
":.	c #B7B7B7",
"<.	c #EBEBEB",
"[.	c #D3D3D3",
"}.	c #A3A3A3",
"|.	c #2F2F2F",
"1.	c #515151",
"2.	c #B2B2B2",
"3.	c #E8E8E8",
"4.	c #191919",
"5.	c #C7C7C7",
"6.	c #9D9D9D",
"7.	c #CECECE",
"8.	c #F7F7F7",
". . . . . . . . . . . . . . . . . . . . . . . . . . . . . . . . . . . . . . . . . . . . . . . . . . . . . . . . . . . . . . . . ",
". . . . . . . . . . . . . . . . . . . . . . . . . . . . . . . . . . . . . . . . . . . . . . . . . . . . . . . . . . . . . . . . ",
". . . . . . . . . . . . . . . . . . . . . . . . . . . . . . . . . . . . . . . . . . . . . . . . . . . . . . . . . . . . . . . . ",
". . . . . . . . . . . . . . . . . . . . . . . . . . . . . . . . . . . . . . . . . . . . . . . . . . . . . . . . . . . . . . . . ",
". . . . . . . . . . . . . . . . . . . . . . . . . . . . . . . . . . . . . . . . . . . . . . . . . . . . . . . . . . . . . . . . ",
". . . . . . . . . . . . . . . . . . . . . . . . . . . . . . . . . . . . . . . . . . . . . . . . . . . . . . . . . . . . . . . . ",
". . . . . . . . . . . . . . . . . . . . . . . . . . . . . . . . . . . . . . . . . . . . . . . . . . . . . . . . . . . . . . . . ",
". . . . . . . . . . . . . . . . . . . . . . . . . . . . . . . . . . . . . . . . . . . . . . . . . . . . . . . . . . . . . . . . ",
". . . . . . . . . . . . . . . . . . . . . . . . . . . . . . . . . . . . . . . . . . . . . . . . . . . . . . . . . . . . . . . . ",
". . . . . . . . . . . . . . . . . . . . . . . . . . . . . . . . . . . . . . . . . . . . . . . . . . . . . . . . . . . . . . . . ",
". . . . . . . . . . . . . . . . . . . . . . . . . . . . . . . . . . . . . . . . . . . . . . . . . . . . . . . . . . . . . . . . ",
". . . . . . . . . . . . . . . . . . . . . . . . . . . . . . . . . . . . . . . . . . . . . . . . . . . . . . . . . . . . . . . . ",
". . . . . . . . . . . . . . . . . . . . . . . . . . . . . . . . . . . . . . . . . . . . . . . . . . . . . . . . . . . . . . . . ",
". . . . . . . . . . . . . . . . . . . . . . . . . . . . . . . . . . . . . . . . . . . . . . . . . . . . . . . . . . . . . . . . ",
". . . . . . . . . . . . . . . . . . . . . . . . . . . . . . . . . . . . . . . . . . . . . . . . . . . . . . . . . . . . . . . . ",
". . . . . . . . . . . . . . . . . . . . . . . . . . . . . . . . . . . . . . . . . . . . . . . . . . . . . . . . . . . . . . . . ",
". . . . . . . . . . . . . . . . . . . . . . . . . . . . . . . . . . . . . . . . . . . . . . . . . . . . . . . . . . . . + @ # . ",
". $ % & * = . . . . . . . . . . . . . . . . . . . . . . . . . . . . . . . . . . . . . . . . . . . . . . . . . . . . . - ; > , ' ",
"* ) ! ~ { ] ^ . . . . . . . . . . . . . . . . . . . . . . . . . . . . . . . . . . . . . . . . . . . . . . . . . . . / ( _ _ : < ",
"[ } | _ _ 1 2 3 4 . . . . . . . . . . . . . . . . . . . . . . . . . . . . . . . . . . . . . . . . . . . . . . . . 5 ; 6 _ _ _ 6 ",
"7 | _ _ _ _ 8 9 0 a b c d e = # d f . . . . . . . . . . . . . . . . . . . . . . . . . . . . . f . . g $ . = / h i j _ _ _ _ _ _ ",
"_ _ _ _ _ _ _ _ | k : l m n o p q r s t u v - = e = d e e e f f e e f w 4 + % x w e y z # $ d A B r C D E F ; G H _ _ _ _ _ _ _ ",
"_ _ _ _ _ _ _ _ _ _ _ _ _ _ _ _ _ _ _ _ _ _ _ I J K 9 L M D , N O P ] Q R S S T q U F < V W X Y K J I _ _ _ _ _ _ _ _ _ _ _ _ _ ",
"_ _ _ _ _ _ _ _ _ _ _ _ _ _ _ _ _ _ _ _ _ _ _ _ _ _ _ _ _ _ _ _ _ _ _ _ _ _ _ _ _ _ _ _ _ _ _ _ _ _ _ _ _ _ _ _ _ _ _ _ _ _ _ _ ",
"_ _ _ _ _ _ _ _ _ _ _ _ _ _ _ _ _ _ _ _ _ _ _ _ _ _ _ _ _ _ _ _ _ _ _ _ _ _ _ _ _ _ _ _ _ _ _ _ _ _ _ _ _ _ _ _ _ _ _ _ _ _ _ _ ",
"_ _ _ _ _ _ _ _ _ _ _ _ _ _ _ _ _ _ _ _ _ _ _ _ _ _ _ _ _ _ _ _ _ _ _ _ _ _ _ _ _ _ _ _ _ _ _ _ _ _ _ _ _ _ _ _ _ _ _ _ _ _ _ _ ",
"_ _ _ _ _ _ _ _ _ _ _ _ _ _ _ _ _ _ _ _ _ _ _ _ _ _ _ _ _ _ _ _ _ _ _ _ _ _ _ _ _ _ _ _ _ _ _ _ _ _ _ _ _ _ _ _ _ _ _ _ _ _ _ _ ",
"_ _ _ _ _ _ _ _ _ _ _ _ _ _ _ _ _ _ _ _ _ _ _ _ _ _ _ _ _ _ _ _ _ _ _ _ _ _ _ _ _ _ _ _ _ _ _ _ _ _ _ _ _ _ _ _ _ _ _ _ _ _ _ _ ",
"_ _ _ _ _ _ _ _ _ _ _ _ _ _ _ _ _ _ _ _ _ _ _ _ _ _ _ _ _ _ _ _ _ _ _ _ _ _ _ _ _ _ _ _ _ _ _ _ _ _ _ _ _ _ _ _ _ _ _ _ _ _ _ _ ",
"_ _ _ _ _ _ _ _ _ _ _ _ _ _ _ _ _ _ _ _ _ _ _ _ _ _ _ _ _ _ _ _ _ _ _ _ _ _ _ _ _ _ _ _ _ _ _ _ _ _ _ _ _ _ _ _ _ _ _ _ _ _ _ _ ",
"_ _ _ _ _ _ _ _ _ _ _ _ _ _ _ _ _ _ _ _ _ _ _ _ _ _ _ _ _ _ _ _ _ _ _ _ _ _ _ _ _ _ _ _ _ _ _ _ _ _ _ _ _ _ _ _ _ _ _ _ _ _ _ _ ",
"_ _ _ _ _ _ _ _ _ _ _ _ _ _ _ _ _ _ _ _ _ _ _ _ _ _ _ _ _ _ _ _ _ _ _ _ _ _ _ _ _ _ _ _ _ _ _ _ _ _ _ _ _ _ _ _ _ _ _ _ _ _ _ _ ",
"_ _ _ _ _ _ _ _ _ _ _ _ _ _ _ _ _ _ _ _ _ _ _ _ _ _ _ _ _ _ _ _ _ _ _ _ _ _ _ _ _ _ _ _ _ _ _ _ _ _ _ _ _ _ _ _ _ _ _ _ _ _ _ _ ",
"_ _ _ _ _ _ _ _ _ _ _ _ _ _ _ _ _ _ _ _ _ _ _ _ _ _ _ _ _ _ _ _ _ _ _ _ _ _ _ _ _ _ _ _ _ _ _ _ _ _ _ _ _ _ _ _ _ _ _ _ _ _ _ _ ",
"_ _ _ _ _ _ _ _ _ _ _ _ _ _ _ _ _ _ _ _ _ _ _ _ _ _ _ _ _ _ _ _ _ _ _ _ _ _ _ _ _ _ _ _ _ _ _ _ _ _ _ _ _ _ _ _ _ _ _ _ _ _ _ _ ",
"| _ _ _ _ _ _ _ _ _ _ _ _ _ _ _ _ _ _ _ _ _ _ _ _ _ _ _ _ _ _ _ _ _ _ _ _ _ _ _ _ _ _ _ _ _ _ _ _ _ _ _ _ _ _ _ _ _ _ _ _ _ _ _ ",
"Z _ _ _ _ _ ` W  .2 ..+.) & d g @.& ' ) #.N $...%.&.) b 5 t %...*.=.U E -.U U ;.i >.,.C F M p '.).q q D [ !.~.{.3 ].^./._ _ _ _ ",
"(.J | _ _ _.-.:.' y f . . . . . . . . . f f f . . . f f f w g g g e w d $ e . . f w e . g @.<.+ 4 w e w $ $ e f $ 4 - [.2 _ _ _ ",
"d }.|.` 1.2.4 f f . . . . . . . . . . . . . . . . . . . . . . . . . . . . . . . . . . . . . . . . . . . . . . . f f f f 3.].4.W ",
". d 5.6.b = f f . . . . . . . . . . . . . . . . . . . . . . . . . . . . . . . . . . . . . . . . . . . . . . . . . f f f f # 7.7.",
". . . 8.w f . . . . . . . . . . . . . . . . . . . . . . . . . . . . . . . . . . . . . . . . . . . . . . . . . . . . f f f . f . ",
". . . . . . . . . . . . . . . . . . . . . . . . . . . . . . . . . . . . . . . . . . . . . . . . . . . . . . . . . . . . . . . . ",
". . . . . . . . . . . . . . . . . . . . . . . . . . . . . . . . . . . . . . . . . . . . . . . . . . . . . . . . . . . . . . . . ",
". . . . . . . . . . . . . . . . . . . . . . . . . . . . . . . . . . . . . . . . . . . . . . . . . . . . . . . . . . . . . . . . ",
". . . . . . . . . . . . . . . . . . . . . . . . . . . . . . . . . . . . . . . . . . . . . . . . . . . . . . . . . . . . . . . . ",
". . . . . . . . . . . . . . . . . . . . . . . . . . . . . . . . . . . . . . . . . . . . . . . . . . . . . . . . . . . . . . . . ",
". . . . . . . . . . . . . . . . . . . . . . . . . . . . . . . . . . . . . . . . . . . . . . . . . . . . . . . . . . . . . . . . ",
". . . . . . . . . . . . . . . . . . . . . . . . . . . . . . . . . . . . . . . . . . . . . . . . . . . . . . . . . . . . . . . . ",
". . . . . . . . . . . . . . . . . . . . . . . . . . . . . . . . . . . . . . . . . . . . . . . . . . . . . . . . . . . . . . . . ",
". . . . . . . . . . . . . . . . . . . . . . . . . . . . . . . . . . . . . . . . . . . . . . . . . . . . . . . . . . . . . . . . ",
". . . . . . . . . . . . . . . . . . . . . . . . . . . . . . . . . . . . . . . . . . . . . . . . . . . . . . . . . . . . . . . . ",
". . . . . . . . . . . . . . . . . . . . . . . . . . . . . . . . . . . . . . . . . . . . . . . . . . . . . . . . . . . . . . . . ",
". . . . . . . . . . . . . . . . . . . . . . . . . . . . . . . . . . . . . . . . . . . . . . . . . . . . . . . . . . . . . . . . ",
". . . . . . . . . . . . . . . . . . . . . . . . . . . . . . . . . . . . . . . . . . . . . . . . . . . . . . . . . . . . . . . . ",
". . . . . . . . . . . . . . . . . . . . . . . . . . . . . . . . . . . . . . . . . . . . . . . . . . . . . . . . . . . . . . . . ",
". . . . . . . . . . . . . . . . . . . . . . . . . . . . . . . . . . . . . . . . . . . . . . . . . . . . . . . . . . . . . . . . ",
". . . . . . . . . . . . . . . . . . . . . . . . . . . . . . . . . . . . . . . . . . . . . . . . . . . . . . . . . . . . . . . . ",
". . . . . . . . . . . . . . . . . . . . . . . . . . . . . . . . . . . . . . . . . . . . . . . . . . . . . . . . . . . . . . . . ",
". . . . . . . . . . . . . . . . . . . . . . . . . . . . . . . . . . . . . . . . . . . . . . . . . . . . . . . . . . . . . . . . ",
". . . . . . . . . . . . . . . . . . . . . . . . . . . . . . . . . . . . . . . . . . . . . . . . . . . . . . . . . . . . . . . . ",
". . . . . . . . . . . . . . . . . . . . . . . . . . . . . . . . . . . . . . . . . . . . . . . . . . . . . . . . . . . . . . . . ",
". . . . . . . . . . . . . . . . . . . . . . . . . . . . . . . . . . . . . . . . . . . . . . . . . . . . . . . . . . . . . . . . ",
". . . . . . . . . . . . . . . . . . . . . . . . . . . . . . . . . . . . . . . . . . . . . . . . . . . . . . . . . . . . . . . . ",
". . . . . . . . . . . . . . . . . . . . . . . . . . . . . . . . . . . . . . . . . . . . . . . . . . . . . . . . . . . . . . . . "};
