/* XPM */
static const char * logost_xpm[] = {
"64 64 225 2",
"  	c None",
". 	c #D1D1D1",
"+ 	c #222222",
"@ 	c #000000",
"# 	c #191919",
"$ 	c #353535",
"% 	c #9A9A9A",
"& 	c #FFFFFF",
"* 	c #494949",
"= 	c #3C3C3C",
"- 	c #BDBDBD",
"; 	c #262626",
"> 	c #898989",
", 	c #131313",
"' 	c #505050",
") 	c #D5D5D5",
"! 	c #030303",
"~ 	c #3D3D3D",
"{ 	c #A1A1A1",
"] 	c #0B0B0B",
"^ 	c #414141",
"/ 	c #6B6B6B",
"( 	c #CACACA",
"_ 	c #979797",
": 	c #BBBBBB",
"< 	c #020202",
"[ 	c #303030",
"} 	c #2C2C2C",
"| 	c #B6B6B6",
"1 	c #BFBFBF",
"2 	c #040404",
"3 	c #909090",
"4 	c #1E1E1E",
"5 	c #9F9F9F",
"6 	c #6A6A6A",
"7 	c #D4D4D4",
"8 	c #6C6C6C",
"9 	c #1A1A1A",
"0 	c #0A0A0A",
"a 	c #8D8D8D",
"b 	c #949494",
"c 	c #0E0E0E",
"d 	c #BEBEBE",
"e 	c #4D4D4D",
"f 	c #808080",
"g 	c #969696",
"h 	c #818181",
"i 	c #D0D0D0",
"j 	c #707070",
"k 	c #4C4C4C",
"l 	c #484848",
"m 	c #B0B0B0",
"n 	c #C6C6C6",
"o 	c #575757",
"p 	c #050505",
"q 	c #8E8E8E",
"r 	c #CECECE",
"s 	c #878787",
"t 	c #545454",
"u 	c #AAAAAA",
"v 	c #D7D7D7",
"w 	c #5D5D5D",
"x 	c #343434",
"y 	c #858585",
"z 	c #C5C5C5",
"A 	c #737373",
"B 	c #626262",
"C 	c #151515",
"D 	c #373737",
"E 	c #8F8F8F",
"F 	c #C1C1C1",
"G 	c #CFCFCF",
"H 	c #D2D2D2",
"I 	c #0C0C0C",
"J 	c #3E3E3E",
"K 	c #797979",
"L 	c #202020",
"M 	c #9C9C9C",
"N 	c #E9E9E9",
"O 	c #A4A4A4",
"P 	c #7E7E7E",
"Q 	c #393939",
"R 	c #E1E1E1",
"S 	c #0F0F0F",
"T 	c #DCDCDC",
"U 	c #C8C8C8",
"V 	c #919191",
"W 	c #1D1D1D",
"X 	c #444444",
"Y 	c #727272",
"Z 	c #2A2A2A",
"` 	c #A0A0A0",
" .	c #080808",
"..	c #4B4B4B",
"+.	c #B7B7B7",
"@.	c #757575",
"#.	c #ADADAD",
"$.	c #060606",
"%.	c #838383",
"&.	c #4A4A4A",
"*.	c #E8E8E8",
"=.	c #C0C0C0",
"-.	c #313131",
";.	c #D3D3D3",
">.	c #212121",
",.	c #DDDDDD",
"'.	c #454545",
").	c #7C7C7C",
"!.	c #646464",
"~.	c #595959",
"{.	c #070707",
"].	c #4F4F4F",
"^.	c #999999",
"/.	c #747474",
"(.	c #232323",
"_.	c #424242",
":.	c #B3B3B3",
"<.	c #717171",
"[.	c #E5E5E5",
"}.	c #767676",
"|.	c #171717",
"1.	c #939393",
"2.	c #ABABAB",
"3.	c #D9D9D9",
"4.	c #333333",
"5.	c #090909",
"6.	c #2D2D2D",
"7.	c #B1B1B1",
"8.	c #555555",
"9.	c #A8A8A8",
"0.	c #101010",
"a.	c #888888",
"b.	c #E7E7E7",
"c.	c #686868",
"d.	c #3A3A3A",
"e.	c #AFAFAF",
"f.	c #434343",
"g.	c #2E2E2E",
"h.	c #010101",
"i.	c #2F2F2F",
"j.	c #DBDBDB",
"k.	c #3B3B3B",
"l.	c #363636",
"m.	c #E2E2E2",
"n.	c #282828",
"o.	c #7D7D7D",
"p.	c #1F1F1F",
"q.	c #606060",
"r.	c #323232",
"s.	c #EAEAEA",
"t.	c #464646",
"u.	c #3F3F3F",
"v.	c #585858",
"w.	c #CBCBCB",
"x.	c #A9A9A9",
"y.	c #A3A3A3",
"z.	c #CDCDCD",
"A.	c #5E5E5E",
"B.	c #5C5C5C",
"C.	c #0D0D0D",
"D.	c #C3C3C3",
"E.	c #D8D8D8",
"F.	c #DEDEDE",
"G.	c #6F6F6F",
"H.	c #6D6D6D",
"I.	c #E6E6E6",
"J.	c #C9C9C9",
"K.	c #AEAEAE",
"L.	c #A7A7A7",
"M.	c #BABABA",
"N.	c #929292",
"O.	c #1C1C1C",
"P.	c #9D9D9D",
"Q.	c #525252",
"R.	c #636363",
"S.	c #8C8C8C",
"T.	c #FAFAFA",
"U.	c #2B2B2B",
"V.	c #5F5F5F",
"W.	c #A5A5A5",
"X.	c #121212",
"Y.	c #474747",
"Z.	c #9B9B9B",
"`.	c #848484",
" +	c #C2C2C2",
".+	c #181818",
"++	c #B5B5B5",
"@+	c #161616",
"#+	c #252525",
"$+	c #CCCCCC",
"%+	c #666666",
"&+	c #292929",
"*+	c #656565",
"=+	c #828282",
"-+	c #6E6E6E",
";+	c #B2B2B2",
">+	c #1B1B1B",
",+	c #C7C7C7",
"'+	c #B8B8B8",
")+	c #676767",
"!+	c #272727",
"~+	c #7F7F7F",
"{+	c #7A7A7A",
"]+	c #8B8B8B",
"^+	c #111111",
"/+	c #B9B9B9",
"(+	c #BCBCBC",
"_+	c #989898",
":+	c #E3E3E3",
"<+	c #7B7B7B",
"[+	c #535353",
"}+	c #4E4E4E",
"|+	c #787878",
"1+	c #A6A6A6",
"2+	c #959595",
"3+	c #DFDFDF",
"4+	c #9E9E9E",
"5+	c #E0E0E0",
"6+	c #E4E4E4",
"7+	c #777777",
"8+	c #DADADA",
"9+	c #A2A2A2",
"0+	c #B4B4B4",
"a+	c #5A5A5A",
"b+	c #616161",
"                                                        . + @ @ # $ %                                                         & ",
"                                                        @ @ * @ @ @ = -                                                         ",
"                                                      @ ; >     @ , '   )                                                       ",
"                                                      ! ~     { ] ^     * /                                                     ",
"                                                    ( @ _   : < [       @ } |                                                   ",
"                                                    1 @ 2 3 @ 4 5     @ @ 6                                   7                 ",
"                                                    8 9 @ @ 0 a     @ @ , b                                 c _ .               ",
"                                                      @ @ @ ^ d e f @ < g                                 h @ 0 i               ",
"                                            j k l   m n o @ @ @ p @ @ q r                               s @ @ @ t               ",
"                                          @ @ 0 @ @ l u v w @ ] 9 x y z                               q c } < @ A               ",
"                                        B C @ @ @ @ @ D E   F G   H                                 b I J K L @ M N             ",
"                                      O - @ @   * P @ @ }                                         % 0 Q   R S @ o       T U     ",
"                                    V W X @ Y       3 @ @ Z                                     `  .$     1 < p ..    +.@ @.v   ",
"                                  #.@ @ @ $.%.      i @ @ &.*.                                  =.-.      ;.>.@ =   - @ @ = ,.  ",
"                    R '.).        ;.!.@ @ @ ~.        @ {.].                                ^./.`         ) (.@ & +.@ @ _.:.    ",
"                    <.@ @ |         [.}.@ @ |.l     1.@ @ 2.                              3.@ @ 4.8       *.p 5.6.@ @ J 7.      ",
"                    @ @ 8.9.            s @ @ 0.@ * {.@ a.(                             b.& -.@ @ (.c.      + @ @ @ d.e.        ",
"                      f.+.  @ g.        3.^.@ @ h.@ -.;.=.                            u ; Y i.|.@ @ >.!.  j.k.@ @ l.#.          ",
"                          @ @ @ ,         m.u @ @ @ n.o.                              @ @ 0 {.& +.@ @ p.q.& w @ r.2.            ",
"                        > I @ @ @ @         s.: @ @ @ < Y                         ) a.t.@ @ S u.& - @ @ W v.w.P x.              ",
"                      y.0 v.d @ @ @ @           z.A.@ @ (.B.                    . @ ].; I @ @ C.k.& D.@ @ @ Y                   ",
"                    d h.g.    E.@ @ @ @ 8         F.G.@ @                       @ @ @ @ H.I.@ @ ] D & J.@ 5.K.                  ",
"        =.L.M.N.    F.O.P.        @ @ @ @ Q.          R.                          @ @ @ $.S.T.@ @ 5.4.x.) y.                    ",
"      +.# 2 @ U.V.                  @ @ @ @ W.        b.                            @ @ @ X.a.& @ @ {.Y.F.                      ",
"    7 @ @ -.@ @ |.B.                  f @ %.D.                            9.i.b Z.    h @ @ c `.& @ 9 {                         ",
"    @ C.1.   +@ @ .+V                   +.M.                            @ (.{.@ L _     s @ @ 0 f & P.                          ",
"  @ n.).      G @ @ ++                                                @ @+#+@ @ @ O.1.    a @ @ |.$+                            ",
"@ @ I           #+@ %+                                              @ &+*+) & @ @ @ .+q     1.C.N.                              ",
"@ @ @ <         =+S                                                 ..-+    ;+< @ @ @ 9 >+o & ) 7                               ",
"++@ @ @ @     ,+@ ^ F.                                            . @ 1.  '+@ #+- @ @ @ @ W '+                                  ",
"  G @ @ @ @ )+@ @+_                                                 5   T @ >.Z.  }.@ >+h.%.7                                   ",
"    N @ @ @ $.< y                                             T           @ U.    @ !+~+  r                                     ",
"        @ @ @ @ ^                                         Q.K Y.>+z.;.  o @ W = p < O.                                          ",
"          @ @ @ @ ;                                     @ 4 ! @ @ C.N.;.++@ @ {.@ @ ^.,.                                        ",
"            V @ @ @ I                                 @ .+{+) E @ @ .+j.3.a @  .{.]+=.                                          ",
"              2.@ @ @ ^+                            ;.x d.    ( @ I s   j./+(+_+z )                                             ",
"                z @ ] Z.                            | @ %+  :+@  .%.    Q.O E.                                                  ",
"                  F.N.;.                            { @ &.w.@ 2 P     ++p D                                                     ",
"                                                    D C.h.@ @ {+    5 @ @  +                                                    ",
"                                            q @     (+@ @ @ }.& $+W.@ @ {+=.                                                    ",
"                                          b @ @ @ <+I.q.@ @ @ @ g.@ @ [+:                                                       ",
"                                        b.)+@ @ @+@   [.B @ @ @ < @ ]./+                                                        ",
"                                      ,.& r.@ }+ +      *.L.k.j |+% 3.                                                          ",
"                                    1+9 2+0 @+3+                                                                                ",
"                                  R @ @  .@ @                                                                                   ",
"                      *.(+1 _     :+1+@ @ @ @ K.                                                                                ",
"                    @ 6.C.@ &+B y.& [.2.@ @  ._ H                                                                               ",
"                  @ ] {.I @ @ @ >.` & b.e.@ @ 0 2+i                                                                             ",
"                @ ; ' :   { i.@ @ W 4+  N :.@ @ $.1.=.                                                                          ",
"              @ p w         5+` @ @ ] O     +.@ @ @ W.                                                                          ",
"            @ @ @ }           m.O @ ! g.      : @ Z 1+                                                                          ",
"            { @ @ @ #+          6+4+@ 9 7+    s.J.W.                                                                            ",
"              9.@ @ @ p.          8+@ @ d.                                                                                      ",
"                K.@ @ @ #           9+@ @ :.                                                                                    ",
"                  0+@ @ @ ,         G @ } d                                                                                     ",
"                    M.@ @ @ C.      a+I a+                                                                                      ",
"                      =.@ @ @ {.  :+b+$.r                                                                                       ",
"                        n @ @ @ h.H.C.^.                                                                                        ",
"                          $+@ @ @ 5._ 7                                                                                         ",
"                            H @ p 2+H                                                                                           ",
"                              3.1.i                                                                                             ",
"                                                                                                                                ",
"                                                                                                                                ",
"                                                                                                                                "};
