/* XPM */
static const char * t1_xpm[] = {
"64 64 99 2",
"  	c None",
". 	c #FFFFFF",
"+ 	c #F9F9F9",
"@ 	c #676767",
"# 	c #0C0C0C",
"$ 	c #010101",
"% 	c #000000",
"& 	c #141414",
"* 	c #999999",
"= 	c #F1F1F1",
"- 	c #A3A3A3",
"; 	c #111111",
"> 	c #2C2C2C",
", 	c #C9C9C9",
"' 	c #FBFBFB",
") 	c #C7C7C7",
"! 	c #2F2F2F",
"~ 	c #8A8A8A",
"{ 	c #EEEEEE",
"] 	c #F7F7F7",
"^ 	c #9D9D9D",
"/ 	c #0F0F0F",
"( 	c #4C4C4C",
"_ 	c #E6E6E6",
": 	c #FCFCFC",
"< 	c #D0D0D0",
"[ 	c #515151",
"} 	c #3F3F3F",
"| 	c #FEFEFE",
"1 	c #F8F8F8",
"2 	c #B2B2B2",
"3 	c #393939",
"4 	c #252525",
"5 	c #9A9A9A",
"6 	c #F3F3F3",
"7 	c #838383",
"8 	c #0A0A0A",
"9 	c #737373",
"0 	c #EDEDED",
"a 	c #B7B7B7",
"b 	c #383838",
"c 	c #2D2D2D",
"d 	c #C0C0C0",
"e 	c #DBDBDB",
"f 	c #5C5C5C",
"g 	c #6B6B6B",
"h 	c #F6F6F6",
"i 	c #090909",
"j 	c #A4A4A4",
"k 	c #878787",
"l 	c #1B1B1B",
"m 	c #A5A5A5",
"n 	c #272727",
"o 	c #EAEAEA",
"p 	c #2E2E2E",
"q 	c #343434",
"r 	c #FDFDFD",
"s 	c #444444",
"t 	c #FAFAFA",
"u 	c #616161",
"v 	c #F5F5F5",
"w 	c #F0F0F0",
"x 	c #7C7C7C",
"y 	c #989898",
"z 	c #C2C2C2",
"A 	c #ACACAC",
"B 	c #E2E2E2",
"C 	c #454545",
"D 	c #B4B4B4",
"E 	c #333333",
"F 	c #C4C4C4",
"G 	c #BEBEBE",
"H 	c #BCBCBC",
"I 	c #9E9E9E",
"J 	c #868686",
"K 	c #757575",
"L 	c #1A1A1A",
"M 	c #E0E0E0",
"N 	c #D9D9D9",
"O 	c #E8E8E8",
"P 	c #F2F2F2",
"Q 	c #ECECEC",
"R 	c #979797",
"S 	c #555555",
"T 	c #5A5A5A",
"U 	c #222222",
"V 	c #D4D4D4",
"W 	c #161616",
"X 	c #646464",
"Y 	c #2A2A2A",
"Z 	c #969696",
"` 	c #D3D3D3",
" .	c #B5B5B5",
"..	c #A1A1A1",
"+.	c #888888",
"@.	c #A6A6A6",
"#.	c #7E7E7E",
"$.	c #9B9B9B",
"%.	c #D7D7D7",
". . . . . . . . . . . . . . . . . . . . . . . . . + @ # $ % % % % % % % % % % % % % % & * = . . . . . . . . . . . . . . . . . . ",
". . . . . . . . . . . . . . . . . . . . . . . . + - ; % % % % % % % % % % % % % % % % $ > , ' . . . . . . . . . . . . . . . . . ",
". . . . . . . . . . . . . . . . . . . . . . . . ) ! $ % % % % % % % % % % % % % % % % % $ ~ { . . . . . . . . . . . . . . . . . ",
". . . . . . . . . . . . . . . . . . . . . . . ] ^ / % % % % % % % % % % % % % % % % % % % ( _ . . . . . . . . . . . . . . . . . ",
". . . . . . . . . . . . . . . . . . . . . . . : < [ % % % % % % % % % % % % % % % % % % % } = . . . . . . . . . . . . . . . . . ",
". . . . . . . . . . . . . . . . . . . . . . . | 1 2 3 % % % % % % % % % % % % % % % % % 4 5 1 . . . . . . . . . . . . . . . . . ",
". . . . . . . . . . . . . . . . . . . . . . . . | 6 7 / % % % % % % % % % % % % % % % 8 9 0 . . . . . . . . . . . . . . . . . . ",
". . . . . . . . . . . . . . . . . . . . . . . . | | a b % % % % % % % % % % % % % % % c d . . . . . . . . . . . . . . . . . . . ",
". . . . . . . . . . . . . . . . . . . . . . . . . | e f % % % % % % % % % % % % % % $ g 6 . . . . . . . . . . . . . . . . . . . ",
". . . . . . . . . . . . . . . . . . . . . . . . . . h 9 % % % % % % % % % % % % % % i j . . . . . . . . . . . . . . . . . . . . ",
". . . . . . . . . . . . . . . . . . . . . . . . . . | k % % % % % % % % % % % % % % l < . . . . . . . . . . . . . . . . . . . . ",
". . . . . . . . . . . . . . . . . . . . . . . . . . . m % % % % % % % % % % % % % % n o . . . . . . . . . . . . . . . . . . . . ",
". . . . . . . . . . . . . . . . . . . . . . . . . . . , % % % % % % % % % % % % % % p + . . . . . . . . . . . . . . . . . . . . ",
". . . . . . . . . . . . . . . . . . . . . . . . . . . _ % % % % % % % % % % % % % % q r . . . . . . . . . . . . . . . . . . . . ",
". . . . . . . . . . . . . . . . . . . . . . . . . . . + % % % % % % % % % % % % % % s 1 . . . . . . . . . . . . . . . . . . . . ",
". . . . . . . . . . . . . . . . . . . . . . . . . . . t % % % % % % % % % % % % % % u v . . . . . . . . . . . . . . . . . . . . ",
". . . . . . . . . . . . . . . . . . . . . . . . . . . w % % % % % % % % % % % % % % x + . . . . . . . . . . . . . . . . . . . . ",
". ' { _ = 1 . . . . . . . . . . . . . . . . . . . . . _ % % % % % % % % % % % % % % y | . . . . . . . . . . . . . . . . . . . . ",
"= , ~ ( } 5 0 . . . . . . . . . . . . . . . . . . . . z % % % % % % % % % % % % % % A . . . . . . . . . . . . . . . . . . . . . ",
"* > $ % % 4 9 d 6 . . . . . . . . . . . . . . . . . B C % % % % % % % % % % % % % % D . . . . . . . . . . . . . . . . . . . . . ",
"& $ % % % % 8 c g j < o + r 1 v + | . . . . . . . { E % % % % % % % % % % % % % % % F . . . . . . . . . . . . . . . . . . . . . ",
"% % % % % % % % $ i l n p q s u x y A D G H I J K L % % % % % % % % % % % % % % % % M | . . . . . . . . . . . . . . . . . . . . ",
"% % % % % % % % % % % % % % % % % % % % % % % % % % % % % % % % % % % % % % % % % % N . . . . . . . . . . . . . . . . . . . . . ",
"% % % % % % % % % % % % % % % % % % % % % % % % % % % % % % % % % % % % % % % % % % O . . . . . . . . . . . . . . . . . . . . . ",
"% % % % % % % % % % % % % % % % % % % % % % % % % % % % % % % % % % % % % % % % % % P . . . . . . . . . . . . . . . . . . . . . ",
"% % % % % % % % % % % % % % % % % % % % % % % % % % % % % % % % % % % % % % % % % % Q . . . . . . . . . . . . . . . . . . . . . ",
"% % % % % % % % % % % % % % % % % % % % % % % % % % % % % % % % % % % % % % % % % % < . . . . . . . . . . . . . . . . . . . . . ",
"% % % % % % % % % % % % % % % % % % % % % % % % % % % % % % % % % % % % % % % % % % R . . . . . . . . . . . . . . . . . . . . . ",
"% % % % % % % % % % % % % % % % % % % % % % % % % % % % % % % % % % % % % % % % % % S | . . . . . . . . . . . . . . . . . . . . ",
"% % % % % % % % % % % % % % % % % % % % % % % % % % % % % % % % % % % % % % % % % % T . . . . . . . . . . . . . . . . . . . . . ",
"% % % % % % % % % % % % % % % % % % % % % % % % % % % % % % % % % % % % % % % % % % A . . . . . . . . . . . . . . . . . . . . . ",
"% % % % % % % % % % % % % % % % % % % % % % % % % % % % % % % % % % % % % % % % % U ] . . . . . . . . . . . . . . . . . . . . . ",
"% % % % % % % % % % % % % % % % % % % % % % % % % % % % % % % % % % % % % % % % % K . . . . . . . . . . . . . . . . . . . . . . ",
"% % % % % % % % % % % % % % % % % % % % % % % % % % % % % % % % % % % % % % % % 8 V . . . . . . . . . . . . . . . . . . . . . . ",
"% % % % % % % % % % % % % % % % % % % % % % % % % % % % % % % % % % % % % % W X B . . . . . . . . . . . . . . . . . . . . . . . ",
"$ % % % % % % % % % % % % % % % % % % % % % % % % % % % % % % % % & Y T Z ` r . . . . . . . . . . . . . . . . . . . . . . . . . ",
"# % % % % % / b f 9 k m , _ + t w _ e ,  ...+.k m ) N @.#.$. .F %.] | . . . . . . . . . . . . . . . . . . . . . . . . . . . . . ",
"@ ; $ % % 3 7 a e h | . . . . . . . . . | | | . . . . . . | . . . . . . . . . . . . . . . . . . . . . . . . . . . . . . . . . . ",
"+ - ! / [ 2 6 | | . . . . . . . . . . . . . . . . . . . . . . . . . . . . . . . . . . . . . . . . . . . . . . . . . . . . . . . ",
". + ) ^ < 1 | | . . . . . . . . . . . . . . . . . . . . . . . . . . . . . . . . . . . . . . . . . . . . . . . . . . . . . . . . ",
". . . ] : | . . . . . . . . . . . . . . . . . . . . . . . . . . . . . . . . . . . . . . . . . . . . . . . . . . . . . . . . . . ",
". . . . . . . . . . . . . . . . . . . . . . . . . . . . . . . . . . . . . . . . . . . . . . . . . . . . . . . . . . . . . . . . ",
". . . . . . . . . . . . . . . . . . . . . . . . . . . . . . . . . . . . . . . . . . . . . . . . . . . . . . . . . . . . . . . . ",
". . . . . . . . . . . . . . . . . . . . . . . . . . . . . . . . . . . . . . . . . . . . . . . . . . . . . . . . . . . . . . . . ",
". . . . . . . . . . . . . . . . . . . . . . . . . . . . . . . . . . . . . . . . . . . . . . . . . . . . . . . . . . . . . . . . ",
". . . . . . . . . . . . . . . . . . . . . . . . . . . . . . . . . . . . . . . . . . . . . . . . . . . . . . . . . . . . . . . . ",
". . . . . . . . . . . . . . . . . . . . . . . . . . . . . . . . . . . . . . . . . . . . . . . . . . . . . . . . . . . . . . . . ",
". . . . . . . . . . . . . . . . . . . . . . . . . . . . . . . . . . . . . . . . . . . . . . . . . . . . . . . . . . . . . . . . ",
". . . . . . . . . . . . . . . . . . . . . . . . . . . . . . . . . . . . . . . . . . . . . . . . . . . . . . . . . . . . . . . . ",
". . . . . . . . . . . . . . . . . . . . . . . . . . . . . . . . . . . . . . . . . . . . . . . . . . . . . . . . . . . . . . . . ",
". . . . . . . . . . . . . . . . . . . . . . . . . . . . . . . . . . . . . . . . . . . . . . . . . . . . . . . . . . . . . . . . ",
". . . . . . . . . . . . . . . . . . . . . . . . . . . . . . . . . . . . . . . . . . . . . . . . . . . . . . . . . . . . . . . . ",
". . . . . . . . . . . . . . . . . . . . . . . . . . . . . . . . . . . . . . . . . . . . . . . . . . . . . . . . . . . . . . . . ",
". . . . . . . . . . . . . . . . . . . . . . . . . . . . . . . . . . . . . . . . . . . . . . . . . . . . . . . . . . . . . . . . ",
". . . . . . . . . . . . . . . . . . . . . . . . . . . . . . . . . . . . . . . . . . . . . . . . . . . . . . . . . . . . . . . . ",
". . . . . . . . . . . . . . . . . . . . . . . . . . . . . . . . . . . . . . . . . . . . . . . . . . . . . . . . . . . . . . . . ",
". . . . . . . . . . . . . . . . . . . . . . . . . . . . . . . . . . . . . . . . . . . . . . . . . . . . . . . . . . . . . . . . ",
". . . . . . . . . . . . . . . . . . . . . . . . . . . . . . . . . . . . . . . . . . . . . . . . . . . . . . . . . . . . . . . . ",
". . . . . . . . . . . . . . . . . . . . . . . . . . . . . . . . . . . . . . . . . . . . . . . . . . . . . . . . . . . . . . . . ",
". . . . . . . . . . . . . . . . . . . . . . . . . . . . . . . . . . . . . . . . . . . . . . . . . . . . . . . . . . . . . . . . ",
". . . . . . . . . . . . . . . . . . . . . . . . . . . . . . . . . . . . . . . . . . . . . . . . . . . . . . . . . . . . . . . . ",
". . . . . . . . . . . . . . . . . . . . . . . . . . . . . . . . . . . . . . . . . . . . . . . . . . . . . . . . . . . . . . . . ",
". . . . . . . . . . . . . . . . . . . . . . . . . . . . . . . . . . . . . . . . . . . . . . . . . . . . . . . . . . . . . . . . ",
". . . . . . . . . . . . . . . . . . . . . . . . . . . . . . . . . . . . . . . . . . . . . . . . . . . . . . . . . . . . . . . . "};
