/* XPM */
static const char * t2_xpm[] = {
"64 64 123 2",
"  	c None",
". 	c #FFFFFF",
"+ 	c #F9F9F9",
"@ 	c #676767",
"# 	c #0C0C0C",
"$ 	c #010101",
"% 	c #000000",
"& 	c #141414",
"* 	c #999999",
"= 	c #F1F1F1",
"- 	c #A3A3A3",
"; 	c #111111",
"> 	c #2C2C2C",
", 	c #C9C9C9",
"' 	c #FBFBFB",
") 	c #C7C7C7",
"! 	c #2F2F2F",
"~ 	c #8A8A8A",
"{ 	c #EEEEEE",
"] 	c #F7F7F7",
"^ 	c #9D9D9D",
"/ 	c #0F0F0F",
"( 	c #4C4C4C",
"_ 	c #E6E6E6",
": 	c #FCFCFC",
"< 	c #D0D0D0",
"[ 	c #515151",
"} 	c #3F3F3F",
"| 	c #FEFEFE",
"1 	c #F8F8F8",
"2 	c #B2B2B2",
"3 	c #393939",
"4 	c #252525",
"5 	c #9A9A9A",
"6 	c #F3F3F3",
"7 	c #838383",
"8 	c #0A0A0A",
"9 	c #737373",
"0 	c #EDEDED",
"a 	c #B7B7B7",
"b 	c #383838",
"c 	c #2D2D2D",
"d 	c #C0C0C0",
"e 	c #DBDBDB",
"f 	c #5C5C5C",
"g 	c #6B6B6B",
"h 	c #F6F6F6",
"i 	c #090909",
"j 	c #A4A4A4",
"k 	c #878787",
"l 	c #1B1B1B",
"m 	c #A5A5A5",
"n 	c #272727",
"o 	c #EAEAEA",
"p 	c #2E2E2E",
"q 	c #343434",
"r 	c #FDFDFD",
"s 	c #444444",
"t 	c #616161",
"u 	c #F5F5F5",
"v 	c #FAFAFA",
"w 	c #1F1F1F",
"x 	c #7C7C7C",
"y 	c #ECECEC",
"z 	c #D7D7D7",
"A 	c #989898",
"B 	c #E5E5E5",
"C 	c #646464",
"D 	c #545454",
"E 	c #919191",
"F 	c #ACACAC",
"G 	c #E4E4E4",
"H 	c #717171",
"I 	c #696969",
"J 	c #323232",
"K 	c #B4B4B4",
"L 	c #C8C8C8",
"M 	c #0D0D0D",
"N 	c #9B9B9B",
"O 	c #C1C1C1",
"P 	c #939393",
"Q 	c #484848",
"R 	c #303030",
"S 	c #949494",
"T 	c #E1E1E1",
"U 	c #BBBBBB",
"V 	c #858585",
"W 	c #7F7F7F",
"X 	c #808080",
"Y 	c #787878",
"Z 	c #414141",
"` 	c #131313",
" .	c #262626",
"..	c #2A2A2A",
"+.	c #202020",
"@.	c #040404",
"#.	c #EFEFEF",
"$.	c #F4F4F4",
"%.	c #EBEBEB",
"&.	c #4E4E4E",
"*.	c #6E6E6E",
"=.	c #D2D2D2",
"-.	c #C2C2C2",
";.	c #E7E7E7",
">.	c #ABABAB",
",.	c #505050",
"'.	c #636363",
").	c #656565",
"!.	c #626262",
"~.	c #A2A2A2",
"{.	c #8D8D8D",
"].	c #6A6A6A",
"^.	c #606060",
"/.	c #AFAFAF",
"(.	c #CCCCCC",
"_.	c #9F9F9F",
":.	c #686868",
"<.	c #1E1E1E",
"[.	c #F0F0F0",
"}.	c #D3D3D3",
"|.	c #E8E8E8",
"1.	c #191919",
"2.	c #CECECE",
". . . . . . . . . . . . . . . . . . . . . . . . . + @ # $ % % % % % % % % % % % % % % & * = . . . . . . . . . . . . . . . . . . ",
". . . . . . . . . . . . . . . . . . . . . . . . + - ; % % % % % % % % % % % % % % % % $ > , ' . . . . . . . . . . . . . . . . . ",
". . . . . . . . . . . . . . . . . . . . . . . . ) ! $ % % % % % % % % % % % % % % % % % $ ~ { . . . . . . . . . . . . . . . . . ",
". . . . . . . . . . . . . . . . . . . . . . . ] ^ / % % % % % % % % % % % % % % % % % % % ( _ . . . . . . . . . . . . . . . . . ",
". . . . . . . . . . . . . . . . . . . . . . . : < [ % % % % % % % % % % % % % % % % % % % } = . . . . . . . . . . . . . . . . . ",
". . . . . . . . . . . . . . . . . . . . . . . | 1 2 3 % % % % % % % % % % % % % % % % % 4 5 1 . . . . . . . . . . . . . . . . . ",
". . . . . . . . . . . . . . . . . . . . . . . . | 6 7 / % % % % % % % % % % % % % % % 8 9 0 . . . . . . . . . . . . . . . . . . ",
". . . . . . . . . . . . . . . . . . . . . . . . | | a b % % % % % % % % % % % % % % % c d . . . . . . . . . . . . . . . . . . . ",
". . . . . . . . . . . . . . . . . . . . . . . . . | e f % % % % % % % % % % % % % % $ g 6 . . . . . . . . . . . . . . . . . . . ",
". . . . . . . . . . . . . . . . . . . . . . . . . . h 9 % % % % % % % % % % % % % % i j . . . . . . . . . . . . . . . . . . . . ",
". . . . . . . . . . . . . . . . . . . . . . . . . . | k % % % % % % % % % % % % % % l < . . . . . . . . . . . . . . . . . . . . ",
". . . . . . . . . . . . . . . . . . . . . . . . . . . m % % % % % % % % % % % % % % n o . . . . . . . . . . . . . . . . . . . . ",
". . . . . . . . . . . . . . . . . . . . . . . . . . . , % % % % % % % % % % % % % % p + . . . . . . . . . . . . . . . . . . . . ",
". . . . . . . . . . . . . . . . . . . . . . . . . . . _ % % % % % % % % % % % % % % q r . . . . . . . . . . . . . . . . . . . . ",
". . . . . . . . . . . . . . . . . . . . . . . . . . . + % % % % % % % % % % % % % % s 1 . . . . . . . . . . . . . . . . . . . . ",
". . . . . . . . . . . . . . . . . . . . . . . . . . . ' 8 % % % % % % % % % % % % % t u . . . . . . . . . . . . . . . . . . . . ",
". . . . . . . . . . . . . . . . . . . . . . . . . . . v w % % % % % % % % % % % % % x + . . . . . . . . . . . . . . . . y z u . ",
". . . . . . . . . . . . . . . . . . . . . . . . . . . r p % % % % % % % % % % % % % A | . . . . . . . . . . . . . . . B C D E e ",
". . . . . . . . . . . . . . . . . . . . . . . . . . . r ! % % % % % % % % % % % % % F . . . . . . . . . . . . . . . G H % % l I ",
". . . . . . . . . . . . . . . . . . . . . . . . . . . v J % % % % % % % % % % % % % K . . . . . . . . . . . . . . L C M % % % M ",
". . . . . . . . . . . . . . . . . . . . . . . . . . | ' J % % % % % % % % % % % % % w N . . . | . . v ' . 1 G O P Q % % % % % % ",
". . . . . . . . . . . . . . . . . . . . . | | | | | | | R % % % % % % % % % % % % % % % S ' + T U A V W X Y C Z ` % % % % % % % ",
". . . . . . . . . . . . . . . . . . . . . | | | | | | r  .% % % % % % % % % % % % % % % # b R ..+.; @.% % % % % % % % % % % % % ",
". . . . . . . . . . . . . . . . . . . . . | | | | | | 1 ; % % % % % % % % % % % % % % % % % % % % % % % % % % % % % % % % % % % ",
". . . . . . . . . . . . . . . . . . . . . | . . . . | #.% % % % % % % % % % % % % % % % % % % % % % % % % % % % % % % % % % % % ",
". . . . . . . . . . . . . . . . . . . . . | . . . . | { % % % % % % % % % % % % % % % % % % % % % % % % % % % % % % % % % % % % ",
". . . . . . . . . . . . . . . . . . . . . . . . . . . $.% % % % % % % % % % % % % % % % % % % % % % % % % % % % % % % % % % % % ",
". . . . . . . . . . . . . . . . . . . . . . . . . . | : % % % % % % % % % % % % % % % % % % % % % % % % % % % % % % % % % % % % ",
". . . . . . . . . . . . . . . . . . . . . . . . . . | 6 % % % % % % % % % % % % % % % % % % % % % % % % % % % % % % % % % % % % ",
". . . . . . . . . . . . . . . . . . . . . . . . . . . %.; % % % % % % % % % % % % % % % % % % % % % % % % % % % % % % % % % % % ",
". . . . . . . . . . . . . . . . . . . . . . . . . . . : q % % % % % % % % % % % % % % % % % % % % % % % % % % % % % % % % % % % ",
". . . . . . . . . . . . . . . . . . . . . . . . . . . . &.% % % % % % % % % % % % % % % % % % % % % % % % % % % % % % % % % % % ",
". . . . . . . . . . . . . . . . . . . . . . . . . . . | *.% % % % % % % % % % % % % % % % % % % % % % % % % % % % % % % % % % % ",
". . . . . . . . . . . . . . . . . . . . . . . . . . . | =.J % % % % % % % % % % % % % % % % % % % % % % % % % % % % % % % % % % ",
". . . . . . . . . . . . . . . . . . . . . . . . . . . . . -.J % % % % % % % % % % % % % % % % % % % % % % % % % % % % % % % % % ",
". . . . . . . . . . . . . . . . . . . . . . . . . . . . . r ;.>.,.% % % % % % % % % % % % % % % % % % % % % % % % % % % % % % % ",
". . . . . . . . . . . . . . . . . . . . . . . . . . . . . . | v 0 P '.).I C !.).!.W ~.{.Y ].t ^.*.x x W * /.-.(.d _.:.<.% % % % ",
". . . . . . . . . . . . . . . . . . . . . . . . . . . . . | . . . | . | . . . . | | | . ' [.%.y 6 : r : ' ' r | ' 6 B }.9 % % % ",
". . . . . . . | . . . . . . . . . . . . . . . . . . . . . . . . . . . . . . . . . . . . . . . . . . . . . . . . | | | | |._.1.b ",
". . . . . . | | . . . . . . . . . . . . . . . . . . . . . . . . . . . . . . . . . . . . . . . . . . . . . . . . . | | | | u 2.2.",
". . . . . . . . . . . . . . . . . . . . . . . . . . . . . . . . . . . . . . . . . . . . . . . . . . . . . . . . . . | | | . | . ",
". . . . . . . . . . . . . . . . . . . . . . . . . . . . . . . . . . . . . . . . . . . . . . . . . . . . . . . . . . . . . . . . ",
". . . . . . . . . . . . . . . . . . . . . . . . . . . . . . . . . . . . . . . . . . . . . . . . . . . . . . . . . . . . . . . . ",
". . . . . . . . . . . . . . . . . . . . . . . . . . . . . . . . . . . . . . . . . . . . . . . . . . . . . . . . . . . . . . . . ",
". . . . . . . . . . . . . . . . . . . . . . . . . . . . . . . . . . . . . . . . . . . . . . . . . . . . . . . . . . . . . . . . ",
". . . . . . . . . . . . . . . . . . . . . . . . . . . . . . . . . . . . . . . . . . . . . . . . . . . . . . . . . . . . . . . . ",
". . . . . . . . . . . . . . . . . . . . . . . . . . . . . . . . . . . . . . . . . . . . . . . . . . . . . . . . . . . . . . . . ",
". . . . . . . . . . . . . . . . . . . . . . . . . . . . . . . . . . . . . . . . . . . . . . . . . . . . . . . . . . . . . . . . ",
". . . . . . . . . . . . . . . . . . . . . . . . . . . . . . . . . . . . . . . . . . . . . . . . . . . . . . . . . . . . . . . . ",
". . . . . . . . . . . . . . . . . . . . . . . . . . . . . . . . . . . . . . . . . . . . . . . . . . . . . . . . . . . . . . . . ",
". . . . . . . . . . . . . . . . . . . . . . . . . . . . . . . . . . . . . . . . . . . . . . . . . . . . . . . . . . . . . . . . ",
". . . . . . . . . . . . . . . . . . . . . . . . . . . . . . . . . . . . . . . . . . . . . . . . . . . . . . . . . . . . . . . . ",
". . . . . . . . . . . . . . . . . . . . . . . . . . . . . . . . . . . . . . . . . . . . . . . . . . . . . . . . . . . . . . . . ",
". . . . . . . . . . . . . . . . . . . . . . . . . . . . . . . . . . . . . . . . . . . . . . . . . . . . . . . . . . . . . . . . ",
". . . . . . . . . . . . . . . . . . . . . . . . . . . . . . . . . . . . . . . . . . . . . . . . . . . . . . . . . . . . . . . . ",
". . . . . . . . . . . . . . . . . . . . . . . . . . . . . . . . . . . . . . . . . . . . . . . . . . . . . . . . . . . . . . . . ",
". . . . . . . . . . . . . . . . . . . . . . . . . . . . . . . . . . . . . . . . . . . . . . . . . . . . . . . . . . . . . . . . ",
". . . . . . . . . . . . . . . . . . . . . . . . | . . . . . . . . . . . . . . . . . . . . . . . . . . . . . . . . . . . . . . . ",
". . . . . . . . . . . . . . . . . . . . . . . | | . . . . . . . . . . . . . . . . . . . . . . . . . . . . . . . . . . . . . . . ",
". . . . . . . . . . . . . . . . . . . . . . . . . . . . . . . . . . . . . . . . . . . . . . . . . . . . . . . . . . . . . . . . ",
". . . . . . . . . . . . . . . . . . . . . . . . . . . . . . . . . . . . . . . . . . . . . . . . . . . . . . . . . . . . . . . . ",
". . . . . . . . . . . . . . . . . . . . . . . . . . . . . . . . . . . . . . . . . . . . . . . . . . . . . . . . . . . . . . . . ",
". . . . . . . . . . . . . . . . . . . . . . . . . . . . . . . . . . . . . . . . . . . . . . . . . . . . . . . . . . . . . . . . ",
". . . . . . . . . . . . . . . . . . . . . . . . . . . . . . . . . . . . . . . . . . . . . . . . . . . . . . . . . . . . . . . . "};
