/* XPM */
static const char * t3_xpm[] = {
"64 64 110 2",
"  	c None",
". 	c #FFFFFF",
"+ 	c #FEFEFE",
"@ 	c #FCFCFC",
"# 	c #F4F4F4",
"$ 	c #F5F5F5",
"% 	c #ECECEC",
"& 	c #D7D7D7",
"* 	c #E5E5E5",
"= 	c #646464",
"- 	c #545454",
"; 	c #919191",
"> 	c #DBDBDB",
", 	c #E4E4E4",
"' 	c #717171",
") 	c #000000",
"! 	c #1B1B1B",
"~ 	c #696969",
"{ 	c #E2E2E2",
"] 	c #0D0D0D",
"^ 	c #F7F7F7",
"/ 	c #969696",
"( 	c #FDFDFD",
"_ 	c #FBFBFB",
": 	c #B0B0B0",
"< 	c #898989",
"[ 	c #676767",
"} 	c #2A2A2A",
"| 	c #D5D5D5",
"1 	c #E8E8E8",
"2 	c #D3D3D3",
"3 	c #BBBBBB",
"4 	c #DEDEDE",
"5 	c #A5A5A5",
"6 	c #868686",
"7 	c #989898",
"8 	c #9B9B9B",
"9 	c #929292",
"0 	c #888888",
"a 	c #7E7E7E",
"b 	c #565656",
"c 	c #5C5C5C",
"d 	c #9D9D9D",
"e 	c #838383",
"f 	c #2D2D2D",
"g 	c #060606",
"h 	c #020202",
"i 	c #010101",
"j 	c #EFEFEF",
"k 	c #ABABAB",
"l 	c #505050",
"m 	c #0A0A0A",
"n 	c #151515",
"o 	c #080808",
"p 	c #B3B3B3",
"q 	c #141414",
"r 	c #F9F9F9",
"s 	c #7A7A7A",
"t 	c #F8F8F8",
"u 	c #282828",
"v 	c #EDEDED",
"w 	c #656565",
"x 	c #8B8B8B",
"y 	c #A9A9A9",
"z 	c #A4A4A4",
"A 	c #808080",
"B 	c #AEAEAE",
"C 	c #111111",
"D 	c #6A6A6A",
"E 	c #616161",
"F 	c #606060",
"G 	c #6E6E6E",
"H 	c #7C7C7C",
"I 	c #7F7F7F",
"J 	c #999999",
"K 	c #AFAFAF",
"L 	c #C2C2C2",
"M 	c #CCCCCC",
"N 	c #C0C0C0",
"O 	c #9F9F9F",
"P 	c #686868",
"Q 	c #1E1E1E",
"R 	c #7D7D7D",
"S 	c #E6E6E6",
"T 	c #F0F0F0",
"U 	c #EBEBEB",
"V 	c #F3F3F3",
"W 	c #737373",
"X 	c #8A8A8A",
"Y 	c #191919",
"Z 	c #383838",
"` 	c #707070",
" .	c #CECECE",
"..	c #939393",
"+.	c #8F8F8F",
"@.	c #787878",
"#.	c #F6F6F6",
"$.	c #858585",
"%.	c #F2F2F2",
"&.	c #FAFAFA",
"*.	c #4E4E4E",
"=.	c #303030",
"-.	c #E1E1E1",
";.	c #202020",
">.	c #040404",
",.	c #414141",
"'.	c #C1C1C1",
").	c #131313",
"!.	c #484848",
"~.	c #C8C8C8",
". . . . . . . . . . . . . . . . . . . . . . . . . . . . . . . . . . . . . . . + . + @ # $ @ . . . . . . . . . . . . . . . . . . ",
". . . . . . . . . . . . . . . . . . . . . . . . . . . . . . . . . . . . . . . . . . . . . . . . . . . . . . . . . . . . . . . . ",
". . . . . . . . . . . . . . . . . . . . . . . . . . . . . . . . . . . . . . . . . . . . . . . . . . . . . . . . . . . . . . . . ",
". . . . . . . . . . . . . . . . . . . . . . . . . . . . . . . . . . . . . . . . . . . . . . . . . . . . . . . . . . . . . . . . ",
". . . . . . . . . . . . . . . . . . . . . . . . . . . . . . . . . . . . . . . . . . . . . . . . . . . . . . . . . . . . . . . . ",
". . . . . . . . . . . . . . . . . . . . . . . . . . . . . . . . . . . . . . . . . . . . . . . . . . . . . . . . . . . . . . . . ",
". . . . . . . . . . . . . . . . . . . . . . . . . . . . . . . . . . . . . . . . . . . . . . . . . . . . . . . . . . . . . . . . ",
". . . . . . . . . . . . . . . . . . . . . . . . . . . . . . . . . . . . . . . . . . . . . . . . . . . . . . . . . . . . . . . . ",
". . . . . . . . . . . . . . . . . . . . . . . . . . . . . . . . . . . . . . . . . . . . . . . . . . . . . . . . . . . . . . . . ",
". . . . . . . . . . . . . . . . . . . . . . . . . . . . . . . . . . . . . . . . . . . . . . . . . . . . . . . . . . . . . . . . ",
". . . . . . . . . . . . . . . . . . . . . . . . . . . . . . . . . . . . . . . . . . . . . . . . . . . . . . . . . . . . . . . . ",
". . . . . . . . . . . . . . . . . . . . . . . . . . . . . . . . . . . . . . . . . . . . . . . . . . . . . . . . . . . . . . . . ",
". . . . . . . . . . . . . . . . . . . . . . . . . . . . . . . . . . . . . . . . . . . + . . . . . . . . . . . . . . . . . . . . ",
". . . . . . . . . . . . . . . . . . . . . . . . . . . . . . . . . . . . . . . . . . . + . . . . . . . . . . . . . . . . . . . . ",
". . . . . . . . . . . . . . . . . . . . . . . . . . . . . . . . . . . . . . . . . . . . . . . . . . . . . . . . . . . . . . . . ",
". . . . . . . . . . . . . . . . . . . . . . . . . . . . . . . . . . . . . . . . . . . . . . . . . . . . . . . . . . . . . . . . ",
". . . . . . . . . . . . . . . . . . . . . . . . . . . . . . . . . . . . . . . . . . . . . . . . . . . . . . . . . . . . % & $ . ",
". . . . . . . . . . . . . . . . . . . . . . . . . . . . . . . . . . . . . . . . . . . . . . . . . . . . . . . . . . . * = - ; > ",
". . . . . . . . . . . . . . . . . . . . . . . . . . . . . . . . . . . . . . . . . . . . . . . . . . . . . . . . . . , ' ) ) ! ~ ",
". . . . . . . . . . . . . . . . . . . . . . . . . . . . . . . . . . . . . . . . . . . . . . . . . . . . . . . . . { = ] ) ) ) ] ",
". . . . . . . . . . . . . . . . . . . . . . . . . . . . . . . . . . . . . . . . . . . . . . . . . . . + . + + + ^ / ) ) ) ) ) ) ",
". . . . . . . . . . . . . . . . . . . . . . . . . . . . . . . . + + + + + + . . . . . ( + . + ( @ @ _ + + * : < [ } ) ) ) ) ) ) ",
". . . . . . . . . . . . . . . . . . . . . . . . . . . . . . . . + ^ | > 1 2 3 4 . | 5 6 7 8 9 0 6 a b c d e f g h i ) ) ) ) ) ) ",
". . . . . . . . . . . . . . . . . . . . . . . . . . . . . . . j k l ) ) ) ) ) ) ) ) ) ) ) ) ) ) ) ) ) m n o ) ) ) ) ) ) ) ) ) ) ",
". . . . . . . . . . . . . . . . . . . . . . . . . . . + . + p q ) ) ) ) ) ) ) ) ) ) ) ) ) ) ) ) ) ) ) ) ) ) ) ) ) ) ) ) ) ) ) ) ",
". . . . . . . . . . . . . . . . . . . . . . . . . . . + r s q ) ) ) ) ) ) ) ) ) ) ) ) ) ) ) ) ) ) ) ) ) ) ) ) ) ) ) ) ) ) ) ) ) ",
". . . . . . . . . . . . . . . . . . . . . . . . . . . @ 9 ) ) ) ) ) ) ) ) ) ) ) ) ) ) ) ) ) ) ) ) ) ) ) ) ) ) ) ) ) ) ) ) ) ) ) ",
". . . . . . . . . . . . . . . . . . . . . . . . . . . t u ) ) ) ) ) ) ) ) ) ) ) ) ) ) ) ) ) ) ) ) ) ) ) ) ) ) ) ) ) ) ) ) ) ) ) ",
". . . . . . . . . . . . . . . . . . . . . . . . . . . v ) ) ) ) ) ) ) ) ) ) ) ) ) ) ) ) ) ) ) ) ) ) ) ) ) ) ) ) ) ) ) ) ) ) ) ) ",
". . . . . . . . . . . . . . . . . . . . . . . . . . . d ) ) ) ) ) ) ) ) ) ) ) ) ) ) ) ) ) ) ) ) ) ) ) ) ) ) ) ) ) ) ) ) ) ) ) ) ",
". . . . . . . . . . . . . . . . . . . . . . . . . . r w ) ) ) ) ) ) ) ) ) ) ) ) ) ) ) ) ) ) ) ) ) ) ) ) ) ) ) ) ) ) ) ) ) ) ) ) ",
". . . . . . . . . . . . . . . . . . . . . . . . . . + x ) ) ) ) ) ) ) ) ) ) ) ) ) ) ) ) ) ) ) ) ) ) ) ) ) ) ) ) ) ) ) ) ) ) ) ) ",
". . . . . . . . . . . . . . . . . . . . . . . . . . . y ) ) ) ) ) ) ) ) ) ) ) ) ) ) ) ) ) ) ) ) ) ) ) ) ) ) ) ) ) ) ) ) ) ) ) ) ",
". . . . . . . . . . . . . . . . . . . . . . . . . . . z ) ) ) ) ) ) ) ) ) ) ) ) ) ) ) ) ) ) ) ) ) ) ) ) ) ) ) ) ) ) ) ) ) ) ) ) ",
". . . . . . . . . . . . . . . . . . . . . . . . . . + 9 ) ) ) ) ) ) ) ) ) ) ) ) ) ) ) ) ) ) ) ) ) ) ) ) ) ) ) ) ) ) ) ) ) ) ) ) ",
". . . . . . . . . . . . . . . . . . . . . . . . . . _ A ) ) ) ) ) ) ) ) ) ) ) ) ) ) ) ) ) ) ) ) ) ) ) ) ) ) ) ) ) ) ) ) ) ) ) ) ",
". . . . . . . . . . . . . . . . . . . . . . . . . . @ B ) ) ) ) ) ) ) ) ) ) ) ) ) ) ) C = D E F G H H I J K L M N O P Q ) ) ) ) ",
". . . . . . . . . . . . . . . . . . . . . + . . . . + 5 ) ) ) ) ) ) ) ) ) ) ) ) ) ) ) R S T U % V @ ( @ _ _ ( + _ V * 2 W ) ) ) ",
". . . . . . . . . . . . . . . . . . . . . . . . . . . X ) ) ) ) ) ) ) ) ) ) ) ) ) ] H U . . . . . . . . . . . . + + + + 1 O Y Z ",
". . . . . . . . . . . . . . . . . . . . . . . . . . . 6 ) ) ) ) ) ) ) ) ) ) ) ) ) ` # . . . . . . . . . . . . . . + + + + $  . .",
". . . . . . . . . . . . . . . . . . . . . . . . . . + ..) ) ) ) ) ) ) ) ) ) ) ) ) H @ . . . . . . . . . . . . . . . + + + . + . ",
". . . . . . . . . . . . . . . . . . . . . . . . . . @ / ) ) ) ) ) ) ) ) ) ) ) ) ) a ( . . . . . . . . . . . . . . . . . . . . . ",
". . . . . . . . . . . . . . . . . . . . . . . . . . ( +.) ) ) ) ) ) ) ) ) ) ) ) ) @.#.. . . . . . . . . . . . . . . . . . . . . ",
". . . . . . . . . . . . . . . . . . . . . . . . . . . $.) ) ) ) ) ) ) ) ) ) ) ) ) ~ %.. . . . . . . . . . . . . . . . . . . . . ",
". . . . . . . . . . . . . . . . . . . . . . . . . . &.@.) ) ) ) ) ) ) ) ) ) ) ) ) *.$ . . . . . . . . . . . . . . . . . . . . . ",
". . . . . . . . . . . . . . . . . . . . . . . . . . T D ) ) ) ) ) ) ) ) ) ) ) ) ) Z _ . . . . . . . . . . . . . . . . . . . . . ",
". . . . . . . . . . . . . . . . . . . . . . . . . . U E ) ) ) ) ) ) ) ) ) ) ) ) ) =.r . . . . . . . . . . . . . . . . . . . . . ",
". . . . . . . . . . . . . . . . . . . . . . . . . . % F ) ) ) ) ) ) ) ) ) ) ) ) ) } -.+ . . . . . . . . . . . . . . . . . . . . ",
". . . . . . . . . . . . . . . . . . . . . . . . . . V G ) ) ) ) ) ) ) ) ) ) ) ) ) ;.3 . . . . . . . . . . . . . . . . . . . . . ",
". . . . . . . . . . . . . . . . . . . . . . . . . . @ H ) ) ) ) ) ) ) ) ) ) ) ) ) C 7 . . . . . . . . . . . . . . . . . . . . . ",
". . . . . . . . . . . . . . . . . . . . . . . . . . ( H ) ) ) ) ) ) ) ) ) ) ) ) ) >.$.&.. . . . . . . . . . . . . . . . . . . . ",
". . . . . . . . . . . . . . . . . . . . . . . . . . @ I ) ) ) ) ) ) ) ) ) ) ) ) ) ) I _ . . . . . . . . . . . . . . . . . . . . ",
". . . . . . . . . . . . . . . . . . . . . . . . . . _ J ) ) ) ) ) ) ) ) ) ) ) ) ) ) A . . . . . . . . . . . . . . . . . . . . . ",
". . . . . . . . . . . . . . . . . . . . . . . . . . _ K ) ) ) ) ) ) ) ) ) ) ) ) ) ) @.t . . . . . . . . . . . . . . . . . . . . ",
". . . . . . . . . . . . . . . . . . . . . . . . . . ( L ) ) ) ) ) ) ) ) ) ) ) ) ) ) = , . . . . . . . . . . . . . . . . . . . . ",
". . . . . . . . . . . . . . . . . . . . . . . . . . + M ) ) ) ) ) ) ) ) ) ) ) ) ) ) ,.'.. . . . . . . . . . . . . . . . . . . . ",
". . . . . . . . . . . . . . . . . . . . . . . . . + _ N ) ) ) ) ) ) ) ) ) ) ) ) ) ) ).... . . . . . . . . . . . . . . . . . . . ",
". . . . . . . . . . . . . . . . . . . . . . . . + + V O ) ) ) ) ) ) ) ) ) ) ) ) ) ) ) !.~.. . . . . . . . . . . . . . . . . . . ",
". . . . . . . . . . . . . . . . . . . . . . . + + + * P ) ) ) ) ) ) ) ) ) ) ) ) ) ) ) ) = , . . . . . . . . . . . . . . . . . . ",
". . . . . . . . . . . . . . . . . . . . . . . + + + 2 Q ) ) ) ) ) ) ) ) ) ) ) ) ) ) ) ) ] ' * . . . . . . . . . . . . . . . . . ",
". . . . . . . . . . . . . . . . . . . . . . . + + 1 W ) ) ) ) ) ) ) ) ) ) ) ) ) ) ) ) ) ) ) = % . . . . . . . . . . . . . . . . ",
". . . . . . . . . . . . . . . . . . . . . . . . $ O ) ) ) ) ) ) ) ) ) ) ) ) ) ) ) ) ) ) ) ) - & . . . . . . . . . . . . . . . . ",
". . . . . . . . . . . . . . . . . . . . . . . +  .Y ) ) ) ) ) ) ) ) ) ) ) ) ) ) ) ) ) ) ) ! ; $ . . . . . . . . . . . . . . . . ",
". . . . . . . . . . . . . . . . . . . . . . . .  .Z ) ) ) ) ) ) ) ) ) ) ) ) ) ) ) ) ) ) ] ~ > . . . . . . . . . . . . . . . . . "};
