/* XPM */
static const char * t4_xpm[] = {
"64 64 141 2",
"  	c None",
". 	c #FFFFFF",
"+ 	c #FBFBFB",
"@ 	c #EEEEEE",
"# 	c #E6E6E6",
"$ 	c #F1F1F1",
"% 	c #F8F8F8",
"& 	c #C9C9C9",
"* 	c #8A8A8A",
"= 	c #4C4C4C",
"- 	c #3F3F3F",
"; 	c #9A9A9A",
"> 	c #EDEDED",
", 	c #999999",
"' 	c #2C2C2C",
") 	c #010101",
"! 	c #000000",
"~ 	c #252525",
"{ 	c #737373",
"] 	c #C0C0C0",
"^ 	c #F3F3F3",
"/ 	c #141414",
"( 	c #0A0A0A",
"_ 	c #2D2D2D",
": 	c #6B6B6B",
"< 	c #A4A4A4",
"[ 	c #D0D0D0",
"} 	c #EAEAEA",
"| 	c #F9F9F9",
"1 	c #FDFDFD",
"2 	c #F5F5F5",
"3 	c #FEFEFE",
"4 	c #FCFCFC",
"5 	c #090909",
"6 	c #1B1B1B",
"7 	c #272727",
"8 	c #2E2E2E",
"9 	c #343434",
"0 	c #444444",
"a 	c #616161",
"b 	c #7C7C7C",
"c 	c #989898",
"d 	c #ACACAC",
"e 	c #B4B4B4",
"f 	c #BEBEBE",
"g 	c #D1D1D1",
"h 	c #E5E5E5",
"i 	c #FAFAFA",
"j 	c #D4D4D4",
"k 	c #949494",
"l 	c #8B8B8B",
"m 	c #BCBCBC",
"n 	c #CECECE",
"o 	c #D9D9D9",
"p 	c #040404",
"q 	c #111111",
"r 	c #202020",
"s 	c #262626",
"t 	c #191919",
"u 	c #4E4E4E",
"v 	c #757575",
"w 	c #ADADAD",
"x 	c #ECECEC",
"y 	c #CDCDCD",
"z 	c #363636",
"A 	c #1F1F1F",
"B 	c #AFAFAF",
"C 	c #4B4B4B",
"D 	c #BDBDBD",
"E 	c #2A2A2A",
"F 	c #DFDFDF",
"G 	c #323232",
"H 	c #E2E2E2",
"I 	c #BFBFBF",
"J 	c #0C0C0C",
"K 	c #0F0F0F",
"L 	c #383838",
"M 	c #5C5C5C",
"N 	c #878787",
"O 	c #A5A5A5",
"P 	c #F0F0F0",
"Q 	c #DBDBDB",
"R 	c #B5B5B5",
"S 	c #A1A1A1",
"T 	c #888888",
"U 	c #595959",
"V 	c #CCCCCC",
"W 	c #676767",
"X 	c #393939",
"Y 	c #838383",
"Z 	c #B7B7B7",
"` 	c #F6F6F6",
" .	c #C2C2C2",
"..	c #434343",
"+.	c #B0B0B0",
"@.	c #A3A3A3",
"#.	c #2F2F2F",
"$.	c #515151",
"%.	c #B2B2B2",
"&.	c #505050",
"*.	c #080808",
"=.	c #7E7E7E",
"-.	c #C7C7C7",
";.	c #9D9D9D",
">.	c #E0E0E0",
",.	c #6D6D6D",
"'.	c #707070",
").	c #F7F7F7",
"!.	c #939393",
"~.	c #969696",
"{.	c #8F8F8F",
"].	c #787878",
"^.	c #858585",
"/.	c #696969",
"(.	c #F2F2F2",
"_.	c #6A6A6A",
":.	c #EBEBEB",
"<.	c #303030",
"[.	c #606060",
"}.	c #E1E1E1",
"|.	c #6E6E6E",
"1.	c #BBBBBB",
"2.	c #7F7F7F",
"3.	c #808080",
"4.	c #646464",
"5.	c #E4E4E4",
"6.	c #414141",
"7.	c #C1C1C1",
"8.	c #131313",
"9.	c #9F9F9F",
"0.	c #484848",
"a.	c #C8C8C8",
"b.	c #686868",
"c.	c #D3D3D3",
"d.	c #1E1E1E",
"e.	c #0D0D0D",
"f.	c #717171",
"g.	c #E8E8E8",
"h.	c #545454",
"i.	c #D7D7D7",
"j.	c #919191",
". . . . . . . . . . . . . . . . . . . . . . . . . . . . . . . . . . . . . . . . . . . . . . . . . . . . . . . . . . . . . . . . ",
". . . . . . . . . . . . . . . . . . . . . . . . . . . . . . . . . . . . . . . . . . . . . . . . . . . . . . . . . . . . . . . . ",
". . . . . . . . . . . . . . . . . . . . . . . . . . . . . . . . . . . . . . . . . . . . . . . . . . . . . . . . . . . . . . . . ",
". . . . . . . . . . . . . . . . . . . . . . . . . . . . . . . . . . . . . . . . . . . . . . . . . . . . . . . . . . . . . . . . ",
". . . . . . . . . . . . . . . . . . . . . . . . . . . . . . . . . . . . . . . . . . . . . . . . . . . . . . . . . . . . . . . . ",
". . . . . . . . . . . . . . . . . . . . . . . . . . . . . . . . . . . . . . . . . . . . . . . . . . . . . . . . . . . . . . . . ",
". . . . . . . . . . . . . . . . . . . . . . . . . . . . . . . . . . . . . . . . . . . . . . . . . . . . . . . . . . . . . . . . ",
". . . . . . . . . . . . . . . . . . . . . . . . . . . . . . . . . . . . . . . . . . . . . . . . . . . . . . . . . . . . . . . . ",
". . . . . . . . . . . . . . . . . . . . . . . . . . . . . . . . . . . . . . . . . . . . . . . . . . . . . . . . . . . . . . . . ",
". . . . . . . . . . . . . . . . . . . . . . . . . . . . . . . . . . . . . . . . . . . . . . . . . . . . . . . . . . . . . . . . ",
". . . . . . . . . . . . . . . . . . . . . . . . . . . . . . . . . . . . . . . . . . . . . . . . . . . . . . . . . . . . . . . . ",
". . . . . . . . . . . . . . . . . . . . . . . . . . . . . . . . . . . . . . . . . . . . . . . . . . . . . . . . . . . . . . . . ",
". . . . . . . . . . . . . . . . . . . . . . . . . . . . . . . . . . . . . . . . . . . . . . . . . . . . . . . . . . . . . . . . ",
". . . . . . . . . . . . . . . . . . . . . . . . . . . . . . . . . . . . . . . . . . . . . . . . . . . . . . . . . . . . . . . . ",
". . . . . . . . . . . . . . . . . . . . . . . . . . . . . . . . . . . . . . . . . . . . . . . . . . . . . . . . . . . . . . . . ",
". . . . . . . . . . . . . . . . . . . . . . . . . . . . . . . . . . . . . . . . . . . . . . . . . . . . . . . . . . . . . . . . ",
". . . . . . . . . . . . . . . . . . . . . . . . . . . . . . . . . . . . . . . . . . . . . . . . . . . . . . . . . . . . . . . . ",
". + @ # $ % . . . . . . . . . . . . . . . . . . . . . . . . . . . . . . . . . . . . . . . . . . . . . . . . . . . . . . . . . . ",
"$ & * = - ; > . . . . . . . . . . . . . . . . . . . . . . . . . . . . . . . . . . . . . . . . . . . . . . . . . . . . . . . . . ",
", ' ) ! ! ~ { ] ^ . . . . . . . . . . . . . . . . . . . . . . . . . . . . . . . . . . . . . . . . . . . . . . . . . . . . . . . ",
"/ ) ! ! ! ! ( _ : < [ } | 1 % 2 | 3 . . . . . . . . 3 3 1 4 1 3 3 3 3 . . . . . . . . . . . . . . . . . . . . . . . . . . . . . ",
"! ! ! ! ! ! ! ! ) 5 6 7 8 9 0 a b c d e f g h % 1 % i j k l , m n o } 2 4 1 3 . . . . . . . . . . . . . . . . . . . . . . . . . ",
"! ! ! ! ! ! ! ! ! ! ! ! ! ! ! ! ! ! ! ! ! ! ! p q r _ s ! ! ! ! ! ! t u v w x . . . . 3 3 3 . . . . . . . . . . . . . . . . . . ",
"! ! ! ! ! ! ! ! ! ! ! ! ! ! ! ! ! ! ! ! ! ! ! ! ! ! ! ! ! ! ! ! ! ! ! ! ! t l + 3 3 3 3 3 3 . . . . . . . . . . . . . . . . . . ",
"! ! ! ! ! ! ! ! ! ! ! ! ! ! ! ! ! ! ! ! ! ! ! ! ! ! ! ! ! ! ! ! ! ! ! ! ! ! 9 y 3 3 3 3 3 3 . . . . . . . . . . . . . . . . . . ",
"! ! ! ! ! ! ! ! ! ! ! ! ! ! ! ! ! ! ! ! ! ! ! ! ! ! ! ! ! ! ! ! ! ! ! ! ! ! ( : i 3 3 3 3 3 . . . . . . . . . . . . . . . . . . ",
"! ! ! ! ! ! ! ! ! ! ! ! ! ! ! ! ! ! ! ! ! ! ! ! ! ! ! ! ! ! ! ! ! ! ! ! ! ! ! z $ 3 3 3 3 3 . . . . . . . . . . . . . . . . . . ",
"! ! ! ! ! ! ! ! ! ! ! ! ! ! ! ! ! ! ! ! ! ! ! ! ! ! ! ! ! ! ! ! ! ! ! ! ! ! ! A B 3 3 3 3 3 . . . . . . . . . . . . . . . . . . ",
"! ! ! ! ! ! ! ! ! ! ! ! ! ! ! ! ! ! ! ! ! ! ! ! ! ! ! ! ! ! ! ! ! ! ! ! ! ! ! ( C 4 3 3 3 . . . . . . . . . . . . . . . . . . . ",
"! ! ! ! ! ! ! ! ! ! ! ! ! ! ! ! ! ! ! ! ! ! ! ! ! ! ! ! ! ! ! ! ! ! ! ! ! ! ! ! ( # 3 3 3 . . . . . . . . . . . . . . . . . . . ",
"! ! ! ! ! ! ! ! ! ! ! ! ! ! ! ! ! ! ! ! ! ! ! ! ! ! ! ! ! ! ! ! ! ! ! ! ! ! ! ! / D 3 3 3 . . . . . . . . . . . . . . . . . . . ",
"! ! ! ! ! ! ! ! ! ! ! ! ! ! ! ! ! ! ! ! ! ! ! ! ! ! ! ! ! ! ! ! ! ! ! ! ! ! ! ! E F 3 3 3 . . . . . . . . . . . . . . . . . . . ",
"! ! ! ! ! ! ! ! ! ! ! ! ! ! ! ! ! ! ! ! ! ! ! ! ! ! ! ! ! ! ! ! ! ! ! ! ! ! ! ! G 3 3 3 . . . . . . . . . . . . . . . . . . . . ",
"! ! ! ! ! ! ! ! ! ! ! ! ! ! ! ! ! ! ! ! ! ! ! ! ! ! ! ! ! ! ! ! ! ! ! ! ! ! ! ! E H 3 3 . . . . . . . . . . . . . . 3 . . . . . ",
"! ! ! ! ! ! ! ! ! ! ! ! ! ! ! ! ! ! ! ! ! ! ! ! ! ! ! ! ! ! ! ! ! ! ! ! ! ! ! ! / I 3 3 . . . . . . . . . . . . . . . . . . . . ",
") ! ! ! ! ! ! ! ! ! ! ! ! ! ! ! ! ! ! ! ! ! ! ! ! ! ! ! ! ! ! ! ! ! ! ! ! ! ! ! ! ] 1 . . . . . . . . . . . . . . . . . . . . . ",
"J ! ! ! ! ! K L M { N O & # | i P # Q & R S T N U J ! ! ! ! ! ! ! ! ! ! ! ! ! ! ! V 1 . . . . . . . . . . . . . . . . . . . . . ",
"W q ) ! ! X Y Z Q ` 3 . . . . . . . . . 3 3 3 .  ...! ! ! ! ! ! ! ! ! ! ! ! ! ! ! +.3 . . . . . . . . . . . . . . . . . . . . . ",
"| @.#.K $.%.^ 3 3 . . . . . . . . . . . . . . . 2 e &.*.! ! ! ! ! ! ! ! ! ! ! ! ! =.+ . . . . . . . . . . . . . . . . . . . . . ",
". | -.;.[ % 3 3 . . . . . . . . . . . . . . . . . 2 >.,.! ! ! ! ! ! ! ! ! ! ! ! ! '.).. . . . . . . . . . . . . . . . . . . . . ",
". . . ).4 3 . . . . . . . . . . . . . . . . . . . . 3 !.! ! ! ! ! ! ! ! ! ! ! ! ! b 4 . . . . . . . . . . . . . . . . . 3 . 3 . ",
". . . . . . . . . . . . . . . . . . . . . . . . . . 4 ~.! ! ! ! ! ! ! ! ! ! ! ! ! =.1 . . . . . . . . . . . . . . . . . . . . . ",
". . . . . . . . . . . . . . . . . . . . . . . . . . 1 {.! ! ! ! ! ! ! ! ! ! ! ! ! ].` . . . . . . . . . . . . . . . . . . . . . ",
". . . . . . . . . . . . . . . . . . . . . . . . . . . ^.! ! ! ! ! ! ! ! ! ! ! ! ! /.(.. . . . . . . . . . . . . . . . . . . . . ",
". . . . . . . . . . . . . . . . . . . . . . . . . . i ].! ! ! ! ! ! ! ! ! ! ! ! ! u 2 . . . . . . . . . . . . . . . . . . . . . ",
". . . . . . . . . . . . . . . . . . . . . . . . . . P _.! ! ! ! ! ! ! ! ! ! ! ! ! L + . . . . . . . . . . . . . . . . . . . . . ",
". . . . . . . . . . . . . . . . . . . . . . . . . . :.a ! ! ! ! ! ! ! ! ! ! ! ! ! <.| . . . . . . . . . . . . . . . . . . . . . ",
". . . . . . . . . . . . . . . . . . . . . . . . . . x [.! ! ! ! ! ! ! ! ! ! ! ! ! E }.3 . . . . . . . . . . . . . . . . . . . . ",
". . . . . . . . . . . . . . . . . . . . . . . . . . ^ |.! ! ! ! ! ! ! ! ! ! ! ! ! r 1.. . . . . . . . . . . . . . . . . . . . . ",
". . . . . . . . . . . . . . . . . . . . . . . . . . 4 b ! ! ! ! ! ! ! ! ! ! ! ! ! q c . . . . . . . . . . . . . . . . . . . . . ",
". . . . . . . . . . . . . . . . . . . . . . . . . . 1 b ! ! ! ! ! ! ! ! ! ! ! ! ! p ^.i . . . . . . . . . . . . . . . . . . . . ",
". . . . . . . . . . . . . . . . . . . . . . . . . . 4 2.! ! ! ! ! ! ! ! ! ! ! ! ! ! 2.+ . . . . . . . . . . . . . . . . . . . . ",
". . . . . . . . . . . . . . . . . . . . . . . . . . + , ! ! ! ! ! ! ! ! ! ! ! ! ! ! 3.. . . . . . . . . . . . . . . . . . . . . ",
". . . . . . . . . . . . . . . . . . . . . . . . . . + B ! ! ! ! ! ! ! ! ! ! ! ! ! ! ].% . . . . . . . . . . . . . . . . . . . . ",
". . . . . . . . . . . . . . . . . . . . . . . . . . 1  .! ! ! ! ! ! ! ! ! ! ! ! ! ! 4.5.. . . . . . . . . . . . . . . . . . . . ",
". . . . . . . . . . . . . . . . . . . . . . . . . . 3 V ! ! ! ! ! ! ! ! ! ! ! ! ! ! 6.7.. . . . . . . . . . . . . . . . . . . . ",
". . . . . . . . . . . . . . . . . . . . . . . . . 3 + ] ! ! ! ! ! ! ! ! ! ! ! ! ! ! 8.!.. . . . . . . . . . . . . . . . . . . . ",
". . . . . . . . . . . . . . . . . . . . . . . . 3 3 ^ 9.! ! ! ! ! ! ! ! ! ! ! ! ! ! ! 0.a.. . . . . . . . . . . . . . . . . . . ",
". . . . . . . . . . . . . . . . . . . . . . . 3 3 3 h b.! ! ! ! ! ! ! ! ! ! ! ! ! ! ! ! 4.5.. . . . . . . . . . . . . . . . . . ",
". . . . . . . . . . . . . . . . . . . . . . . 3 3 3 c.d.! ! ! ! ! ! ! ! ! ! ! ! ! ! ! ! e.f.h . . . . . . . . . . . . . . . . . ",
". . . . . . . . . . . . . . . . . . . . . . . 3 3 g.{ ! ! ! ! ! ! ! ! ! ! ! ! ! ! ! ! ! ! ! 4.x . . . . . . . . . . . . . . . . ",
". . . . . . . . . . . . . . . . . . . . . . . . 2 9.! ! ! ! ! ! ! ! ! ! ! ! ! ! ! ! ! ! ! ! h.i.. . . . . . . . . . . . . . . . ",
". . . . . . . . . . . . . . . . . . . . . . . 3 n t ! ! ! ! ! ! ! ! ! ! ! ! ! ! ! ! ! ! ! 6 j.2 . . . . . . . . . . . . . . . . ",
". . . . . . . . . . . . . . . . . . . . . . . . n L ! ! ! ! ! ! ! ! ! ! ! ! ! ! ! ! ! ! e./.Q . . . . . . . . . . . . . . . . . "};
