/* XPM */
static const char * v_xpm[] = {
"64 64 129 2",
"  	c None",
". 	c #FFFFFF",
"+ 	c #F9F9F9",
"@ 	c #676767",
"# 	c #0C0C0C",
"$ 	c #010101",
"% 	c #000000",
"& 	c #141414",
"* 	c #999999",
"= 	c #F1F1F1",
"- 	c #A3A3A3",
"; 	c #111111",
"> 	c #2C2C2C",
", 	c #C9C9C9",
"' 	c #FBFBFB",
") 	c #C7C7C7",
"! 	c #2F2F2F",
"~ 	c #8A8A8A",
"{ 	c #EEEEEE",
"] 	c #F7F7F7",
"^ 	c #9D9D9D",
"/ 	c #0F0F0F",
"( 	c #4C4C4C",
"_ 	c #E6E6E6",
": 	c #FCFCFC",
"< 	c #D0D0D0",
"[ 	c #515151",
"} 	c #3F3F3F",
"| 	c #FEFEFE",
"1 	c #F8F8F8",
"2 	c #B2B2B2",
"3 	c #393939",
"4 	c #252525",
"5 	c #9A9A9A",
"6 	c #F3F3F3",
"7 	c #838383",
"8 	c #0A0A0A",
"9 	c #737373",
"0 	c #EDEDED",
"a 	c #B7B7B7",
"b 	c #383838",
"c 	c #2D2D2D",
"d 	c #C0C0C0",
"e 	c #DBDBDB",
"f 	c #5C5C5C",
"g 	c #6B6B6B",
"h 	c #F6F6F6",
"i 	c #090909",
"j 	c #A4A4A4",
"k 	c #878787",
"l 	c #1B1B1B",
"m 	c #A5A5A5",
"n 	c #272727",
"o 	c #EAEAEA",
"p 	c #2E2E2E",
"q 	c #343434",
"r 	c #FDFDFD",
"s 	c #444444",
"t 	c #FAFAFA",
"u 	c #616161",
"v 	c #F5F5F5",
"w 	c #F0F0F0",
"x 	c #7C7C7C",
"y 	c #989898",
"z 	c #ACACAC",
"A 	c #B4B4B4",
"B 	c #B5B5B5",
"C 	c #BEBEBE",
"D 	c #A1A1A1",
"E 	c #D1D1D1",
"F 	c #888888",
"G 	c #E5E5E5",
"H 	c #040404",
"I 	c #9E9E9E",
"J 	c #B8B8B8",
"K 	c #202020",
"L 	c #474747",
"M 	c #C8C8C8",
"N 	c #6A6A6A",
"O 	c #7F7F7F",
"P 	c #919191",
"Q 	c #7B7B7B",
"R 	c #A7A7A7",
"S 	c #7D7D7D",
"T 	c #A6A6A6",
"U 	c #7E7E7E",
"V 	c #808080",
"W 	c #818181",
"X 	c #6C6C6C",
"Y 	c #666666",
"Z 	c #ECECEC",
"` 	c #868686",
" .	c #707070",
"..	c #F4F4F4",
"+.	c #939393",
"@.	c #969696",
"#.	c #8F8F8F",
"$.	c #787878",
"%.	c #858585",
"&.	c #696969",
"*.	c #F2F2F2",
"=.	c #4E4E4E",
"-.	c #EBEBEB",
";.	c #303030",
">.	c #606060",
",.	c #2A2A2A",
"'.	c #E1E1E1",
").	c #6E6E6E",
"!.	c #BBBBBB",
"~.	c #AFAFAF",
"{.	c #C2C2C2",
"].	c #646464",
"^.	c #E4E4E4",
"/.	c #CCCCCC",
"(.	c #414141",
"_.	c #C1C1C1",
":.	c #131313",
"<.	c #9F9F9F",
"[.	c #484848",
"}.	c #686868",
"|.	c #D3D3D3",
"1.	c #1E1E1E",
"2.	c #0D0D0D",
"3.	c #717171",
"4.	c #E8E8E8",
"5.	c #545454",
"6.	c #D7D7D7",
"7.	c #CECECE",
"8.	c #191919",
". . . . . . . . . . . . . . . . . . . . . . . . . + @ # $ % % % % % % % % % % % % % % & * = . . . . . . . . . . . . . . . . . . ",
". . . . . . . . . . . . . . . . . . . . . . . . + - ; % % % % % % % % % % % % % % % % $ > , ' . . . . . . . . . . . . . . . . . ",
". . . . . . . . . . . . . . . . . . . . . . . . ) ! $ % % % % % % % % % % % % % % % % % $ ~ { . . . . . . . . . . . . . . . . . ",
". . . . . . . . . . . . . . . . . . . . . . . ] ^ / % % % % % % % % % % % % % % % % % % % ( _ . . . . . . . . . . . . . . . . . ",
". . . . . . . . . . . . . . . . . . . . . . . : < [ % % % % % % % % % % % % % % % % % % % } = . . . . . . . . . . . . . . . . . ",
". . . . . . . . . . . . . . . . . . . . . . . | 1 2 3 % % % % % % % % % % % % % % % % % 4 5 1 . . . . . . . . . . . . . . . . . ",
". . . . . . . . . . . . . . . . . . . . . . . . | 6 7 / % % % % % % % % % % % % % % % 8 9 0 . . . . . . . . . . . . . . . . . . ",
". . . . . . . . . . . . . . . . . . . . . . . . | | a b % % % % % % % % % % % % % % % c d . . . . . . . . . . . . . . . . . . . ",
". . . . . . . . . . . . . . . . . . . . . . . . . | e f % % % % % % % % % % % % % % $ g 6 . . . . . . . . . . . . . . . . . . . ",
". . . . . . . . . . . . . . . . . . . . . . . . . . h 9 % % % % % % % % % % % % % % i j . . . . . . . . . . . . . . . . . . . . ",
". . . . . . . . . . . . . . . . . . . . . . . . . . | k % % % % % % % % % % % % % % l < . . . . . . . . . . . . . . . . . . . . ",
". . . . . . . . . . . . . . . . . . . . . . . . . . . m % % % % % % % % % % % % % % n o . . . . . . . . . . . . . . . . . . . . ",
". . . . . . . . . . . . . . . . . . . . . . . . . . . , % % % % % % % % % % % % % % p + . . . . . . . . . . . . . . . . . . . . ",
". . . . . . . . . . . . . . . . . . . . . . . . . . . _ % % % % % % % % % % % % % % q r . . . . . . . . . . . . . . . . . . . . ",
". . . . . . . . . . . . . . . . . . . . . . . . . . . + % % % % % % % % % % % % % % s 1 . . . . . . . . . . . . . . . . . . . . ",
". . . . . . . . . . . . . . . . . . . . . . . . . . . t % % % % % % % % % % % % % % u v . . . . . . . . . . . . . . . . . . . . ",
". . . . . . . . . . . . . . . . . . . . . . . . . . . w % % % % % % % % % % % % % % x + . . . . . . . . . . . . . . . . . . . . ",
". . . . . . . . . . . . . . . . . . . . . . . . . . . _ % % % % % % % % % % % % % % y | . . . . . . . . . . . . . . . . . . . . ",
". . . . . . . . . . . . . . . . . . . . . . . . . . . e % % % % % % % % % % % % % % z . . . . . . . . . . . . . . . . . . . . . ",
". . . . . . . . . . . . . . . . . . . . . . . . . . . , % % % % % % % % % % % % % % A . . . . . . . . . . . . . . . . . . . . . ",
". . . . . . . . . . . . . . . . . . . . . . . . . . | B % % % % % % % % % % % % % % C . . . . . . . . . . . . . . . . . . . . . ",
". . . . . . . . . . . . . . . . . . . . . . . . . . | D % % % % % % % % % % % % % % E . . . . . . . . . . . . . . . . . . . . . ",
". . . . . . . . . . . . . . . . . . . . . . . . . . | F % % % % % % % % % % % % % % G . . . . . . . . . . . . . . . . . . . . . ",
". . . . . . . . . . . . . . . . . . . . . . . . . . . k % % % % % % % % % % % % % H 1 . . . . . . . . . . . . . . . . . . . . . ",
". . . . . . . . . . . . . . . . . . . . . . . . . . . I % % % % % % % % % % % % % ; r . . . . . . . . . . . . . . . . . . . . . ",
". . . . . . . . . . . . . . . . . . . . . . . . . . . J % % % % % % % % % % % % % K 1 . . . . . . . . . . . . . . . . . . . . . ",
". . . . . . . . . . . . . . . . . . . . . . . . . . | , % % % % % % % % % % % % % c + . . . . . . . . . . . . . . . . . . . . . ",
". . . . . . . . . . . . . . . . . . . . . . . . . . | < % % % % % % % % % % % % % L r . . . . . . . . . . . . . . . . . . . . . ",
". . . . . . . . . . . . . . . . . . . . . . . . . . | M % % % % % % % % % % % % % N r . . . . . . . . . . . . . . . . . . . . . ",
". . . . . . . . . . . . . . . . . . . . . . . . . . : A % % % % % % % % % % % % % O r . . . . . . . . . . . . . . . . . . . . . ",
". . . . . . . . . . . . . . . . . . . . . . . . . . t I % % % % % % % % % % % % % P | . . . . . . . . . . . . . . . . . . . . . ",
". . . . . . . . . . . . . . . . . . . . . . . . . . t k % % % % % % % % % % % % % D | . . . . . . . . . . . . . . . . . . . . . ",
". . . . . . . . . . . . . . . . . . . . . . . . . . t Q % % % % % % % % % % % % % R r . . . . . . . . . . . . . . . . . . . . . ",
". . . . . . . . . . . . . . . . . . . . . . . . . . r S % % % % % % % % % % % % % T r . . . . . . . . . . . . . . . . . . . . . ",
". . . . . . . . . . . . . . . . . . . . . . . . . . : U % % % % % % % % % % % % % 5 | . . . . . . . . . . . . . . . . . . . . . ",
". . . . . . . . . . . . . . . . . . . . . . . . . . + V % % % % % % % % % % % % % W : . . . . . . . . . . . . . . . . . . . . . ",
". . . . . . . . . . . . . . . . . . . . . . . . . . ' 7 % % % % % % % % % % % % % X 6 . . . . . . . . . . . . . . . . . . . . . ",
". . . . . . . . . . . . . . . . . . . . . . . . . . r U % % % % % % % % % % % % % Y Z . . . . . . . . . . . . . . . . . . . . . ",
". . . . . . . . . . . . . . . . . . . . . . . . . . . U % % % % % % % % % % % % % Y { . . . . . . . . . . . . . . . . . . . . . ",
". . . . . . . . . . . . . . . . . . . . . . . . . . . ` % % % % % % % % % % % % %  .... . . . . . . . . . . . . . . . . . . . . ",
". . . . . . . . . . . . . . . . . . . . . . . . . . | +.% % % % % % % % % % % % % x : . . . . . . . . . . . . . . . . . . . . . ",
". . . . . . . . . . . . . . . . . . . . . . . . . . : @.% % % % % % % % % % % % % U r . . . . . . . . . . . . . . . . . . . . . ",
". . . . . . . . . . . . . . . . . . . . . . . . . . r #.% % % % % % % % % % % % % $.h . . . . . . . . . . . . . . . . . . . . . ",
". . . . . . . . . . . . . . . . . . . . . . . . . . . %.% % % % % % % % % % % % % &.*.. . . . . . . . . . . . . . . . . . . . . ",
". . . . . . . . . . . . . . . . . . . . . . . . . . t $.% % % % % % % % % % % % % =.v . . . . . . . . . . . . . . . . . . . . . ",
". . . . . . . . . . . . . . . . . . . . . . . . . . w N % % % % % % % % % % % % % b ' . . . . . . . . . . . . . . . . . . . . . ",
". . . . . . . . . . . . . . . . . . . . . . . . . . -.u % % % % % % % % % % % % % ;.+ . . . . . . . . . . . . . . . . . . . . . ",
". . . . . . . . . . . . . . . . . . . . . . . . . . Z >.% % % % % % % % % % % % % ,.'.| . . . . . . . . . . . . . . . . . . . . ",
". . . . . . . . . . . . . . . . . . . . . . . . . . 6 ).% % % % % % % % % % % % % K !.. . . . . . . . . . . . . . . . . . . . . ",
". . . . . . . . . . . . . . . . . . . . . . . . . . : x % % % % % % % % % % % % % ; y . . . . . . . . . . . . . . . . . . . . . ",
". . . . . . . . . . . . . . . . . . . . . . . . . . r x % % % % % % % % % % % % % H %.t . . . . . . . . . . . . . . . . . . . . ",
". . . . . . . . . . . . . . . . . . . . . . . . . . : O % % % % % % % % % % % % % % O ' . . . . . . . . . . . . . . . . . . . . ",
". . . . . . . . . . . . . . . . . . . . . . . . . . ' * % % % % % % % % % % % % % % V . . . . . . . . . . . . . . . . . . . . . ",
". . . . . . . . . . . . . . . . . . . . . . . . . . ' ~.% % % % % % % % % % % % % % $.1 . . . . . . . . . . . . . . . . . . . . ",
". . . . . . . . . . . . . . . . . . . . . . . . . . r {.% % % % % % % % % % % % % % ].^.. . . . . . . . . . . . . . . . . . . . ",
". . . . . . . . . . . . . . . . . . . . . . . . . . | /.% % % % % % % % % % % % % % (._.. . . . . . . . . . . . . . . . . . . . ",
". . . . . . . . . . . . . . . . . . . . . . . . . | ' d % % % % % % % % % % % % % % :.+.. . . . . . . . . . . . . . . . . . . . ",
". . . . . . . . . . . . . . . . . . . . . . . . | | 6 <.% % % % % % % % % % % % % % % [.M . . . . . . . . . . . . . . . . . . . ",
". . . . . . . . . . . . . . . . . . . . . . . | | | G }.% % % % % % % % % % % % % % % % ].^.. . . . . . . . . . . . . . . . . . ",
". . . . . . . . . . . . . . . . . . . . . . . | | | |.1.% % % % % % % % % % % % % % % % 2.3.G . . . . . . . . . . . . . . . . . ",
". . . . . . . . . . . . . . . . . . . . . . . | | 4.9 % % % % % % % % % % % % % % % % % % % ].Z . . . . . . . . . . . . . . . . ",
". . . . . . . . . . . . . . . . . . . . . . . . v <.% % % % % % % % % % % % % % % % % % % % 5.6.. . . . . . . . . . . . . . . . ",
". . . . . . . . . . . . . . . . . . . . . . . | 7.8.% % % % % % % % % % % % % % % % % % % l P v . . . . . . . . . . . . . . . . ",
". . . . . . . . . . . . . . . . . . . . . . . . 7.b % % % % % % % % % % % % % % % % % % 2.&.e . . . . . . . . . . . . . . . . . "};
