/* XPM */
static const char * x_xpm[] = {
"64 64 129 2",
"  	c None",
". 	c #FFFFFF",
"+ 	c #F9F9F9",
"@ 	c #676767",
"# 	c #0C0C0C",
"$ 	c #010101",
"% 	c #000000",
"& 	c #141414",
"* 	c #999999",
"= 	c #F1F1F1",
"- 	c #A3A3A3",
"; 	c #111111",
"> 	c #2C2C2C",
", 	c #C9C9C9",
"' 	c #FBFBFB",
") 	c #C7C7C7",
"! 	c #2F2F2F",
"~ 	c #8A8A8A",
"{ 	c #EEEEEE",
"] 	c #F7F7F7",
"^ 	c #9D9D9D",
"/ 	c #0F0F0F",
"( 	c #4C4C4C",
"_ 	c #E6E6E6",
": 	c #FCFCFC",
"< 	c #D0D0D0",
"[ 	c #515151",
"} 	c #3F3F3F",
"| 	c #FEFEFE",
"1 	c #F8F8F8",
"2 	c #B2B2B2",
"3 	c #393939",
"4 	c #252525",
"5 	c #9A9A9A",
"6 	c #F3F3F3",
"7 	c #838383",
"8 	c #0A0A0A",
"9 	c #737373",
"0 	c #EDEDED",
"a 	c #B7B7B7",
"b 	c #383838",
"c 	c #2D2D2D",
"d 	c #C0C0C0",
"e 	c #DBDBDB",
"f 	c #5C5C5C",
"g 	c #6B6B6B",
"h 	c #F6F6F6",
"i 	c #090909",
"j 	c #A4A4A4",
"k 	c #878787",
"l 	c #1B1B1B",
"m 	c #A5A5A5",
"n 	c #272727",
"o 	c #EAEAEA",
"p 	c #2E2E2E",
"q 	c #343434",
"r 	c #FDFDFD",
"s 	c #444444",
"t 	c #FAFAFA",
"u 	c #616161",
"v 	c #F5F5F5",
"w 	c #F0F0F0",
"x 	c #7C7C7C",
"y 	c #ECECEC",
"z 	c #D7D7D7",
"A 	c #989898",
"B 	c #E5E5E5",
"C 	c #646464",
"D 	c #545454",
"E 	c #919191",
"F 	c #ACACAC",
"G 	c #E4E4E4",
"H 	c #717171",
"I 	c #696969",
"J 	c #B4B4B4",
"K 	c #C8C8C8",
"L 	c #0D0D0D",
"M 	c #B5B5B5",
"N 	c #BEBEBE",
"O 	c #C1C1C1",
"P 	c #939393",
"Q 	c #484848",
"R 	c #D1D1D1",
"S 	c #A0A0A0",
"T 	c #CACACA",
"U 	c #F2F2F2",
"V 	c #E1E1E1",
"W 	c #BBBBBB",
"X 	c #858585",
"Y 	c #7F7F7F",
"Z 	c #808080",
"` 	c #787878",
" .	c #414141",
"..	c #131313",
"+.	c #040404",
"@.	c #202020",
"#.	c #262626",
"$.	c #6C6C6C",
"%.	c #4E4E4E",
"&.	c #303030",
"*.	c #2A2A2A",
"=.	c #A1A1A1",
"-.	c #888888",
";.	c #9E9E9E",
">.	c #B8B8B8",
",.	c #C6C6C6",
"'.	c #404040",
").	c #6A6A6A",
"!.	c #606060",
"~.	c #6E6E6E",
"{.	c #AFAFAF",
"].	c #C2C2C2",
"^.	c #CCCCCC",
"/.	c #9F9F9F",
"(.	c #686868",
"_.	c #1E1E1E",
":.	c #7E7E7E",
"<.	c #656565",
"[.	c #EBEBEB",
"}.	c #D3D3D3",
"|.	c #666666",
"1.	c #E8E8E8",
"2.	c #191919",
"3.	c #868686",
"4.	c #707070",
"5.	c #F4F4F4",
"6.	c #CECECE",
"7.	c #969696",
"8.	c #8F8F8F",
". . . . . . . . . . . . . . . . . . . . . . . . . + @ # $ % % % % % % % % % % % % % % & * = . . . . . . . . . . . . . . . . . . ",
". . . . . . . . . . . . . . . . . . . . . . . . + - ; % % % % % % % % % % % % % % % % $ > , ' . . . . . . . . . . . . . . . . . ",
". . . . . . . . . . . . . . . . . . . . . . . . ) ! $ % % % % % % % % % % % % % % % % % $ ~ { . . . . . . . . . . . . . . . . . ",
". . . . . . . . . . . . . . . . . . . . . . . ] ^ / % % % % % % % % % % % % % % % % % % % ( _ . . . . . . . . . . . . . . . . . ",
". . . . . . . . . . . . . . . . . . . . . . . : < [ % % % % % % % % % % % % % % % % % % % } = . . . . . . . . . . . . . . . . . ",
". . . . . . . . . . . . . . . . . . . . . . . | 1 2 3 % % % % % % % % % % % % % % % % % 4 5 1 . . . . . . . . . . . . . . . . . ",
". . . . . . . . . . . . . . . . . . . . . . . . | 6 7 / % % % % % % % % % % % % % % % 8 9 0 . . . . . . . . . . . . . . . . . . ",
". . . . . . . . . . . . . . . . . . . . . . . . | | a b % % % % % % % % % % % % % % % c d . . . . . . . . . . . . . . . . . . . ",
". . . . . . . . . . . . . . . . . . . . . . . . . | e f % % % % % % % % % % % % % % $ g 6 . . . . . . . . . . . . . . . . . . . ",
". . . . . . . . . . . . . . . . . . . . . . . . . . h 9 % % % % % % % % % % % % % % i j . . . . . . . . . . . . . . . . . . . . ",
". . . . . . . . . . . . . . . . . . . . . . . . . . | k % % % % % % % % % % % % % % l < . . . . . . . . . . . . . . . . . . . . ",
". . . . . . . . . . . . . . . . . . . . . . . . . . . m % % % % % % % % % % % % % % n o . . . . . . . . . . . . . . . . . . . . ",
". . . . . . . . . . . . . . . . . . . . . . . . . . . , % % % % % % % % % % % % % % p + . . . . . . . . . . . . . . . . . . . . ",
". . . . . . . . . . . . . . . . . . . . . . . . . . . _ % % % % % % % % % % % % % % q r . . . . . . . . . . . . . . . . . . . . ",
". . . . . . . . . . . . . . . . . . . . . . . . . . . + % % % % % % % % % % % % % % s 1 . . . . . . . . . . . . . . . . . . . . ",
". . . . . . . . . . . . . . . . . . . . . . . . . . . t % % % % % % % % % % % % % % u v . . . . . . . . . . . . . . . . . . . . ",
". . . . . . . . . . . . . . . . . . . . . . . . . . . w % % % % % % % % % % % % % % x + . . . . . . . . . . . . . . . . y z v . ",
". ' { _ = 1 . . . . . . . . . . . . . . . . . . . . . _ % % % % % % % % % % % % % % A | . . . . . . . . . . . . . . . B C D E e ",
"= , ~ ( } 5 0 . . . . . . . . . . . . . . . . . . . . e % % % % % % % % % % % % % % F . . . . . . . . . . . . . . . G H % % l I ",
"* > $ % % 4 9 d 6 . . . . . . . . . . . . . . . . . . , % % % % % % % % % % % % % % J . . . . . . . . . . . . . . K C L % % % L ",
"& $ % % % % 8 c g j < o + r 1 v + | . . . . . . . . | M % % % % % % % % % % % % % % N . . . . | . . t ' . 1 G O P Q % % % % % % ",
"% % % % % % % % $ i l n p q s u x A F J N R B 1 r 1 1 S % % % % % % % % % % % % % % T U v ' + V W A X Y Z ` C  ...% % % % % % % ",
"% % % % % % % % % % % % % % % % % % % % % % % +.; @.c #.% % % % % % % % % % % % % % $.I %.b &.*.@.; +.% % % % % % % % % % % % % ",
"% % % % % % % % % % % % % % % % % % % % % % % % % % % % % % % % % % % % % % % % % % % % % % % % % % % % % % % % % % % % % % % % ",
"% % % % % % % % % % % % % % % % % % % % % % % % % % % % % % % % % % % % % % % % % % % % % % % % % % % % % % % % % % % % % % % % ",
"% % % % % % % % % % % % % % % % % % % % % % % % % % % % % % % % % % % % % % % % % % % % % % % % % % % % % % % % % % % % % % % % ",
"% % % % % % % % % % % % % % % % % % % % % % % % % % % % % % % % % % % % % % % % % % % % % % % % % % % % % % % % % % % % % % % % ",
"% % % % % % % % % % % % % % % % % % % % % % % % % % % % % % % % % % % % % % % % % % % % % % % % % % % % % % % % % % % % % % % % ",
"% % % % % % % % % % % % % % % % % % % % % % % % % % % % % % % % % % % % % % % % % % % % % % % % % % % % % % % % % % % % % % % % ",
"% % % % % % % % % % % % % % % % % % % % % % % % % % % % % % % % % % % % % % % % % % % % % % % % % % % % % % % % % % % % % % % % ",
"% % % % % % % % % % % % % % % % % % % % % % % % % % % % % % % % % % % % % % % % % % % % % % % % % % % % % % % % % % % % % % % % ",
"% % % % % % % % % % % % % % % % % % % % % % % % % % % % % % % % % % % % % % % % % % % % % % % % % % % % % % % % % % % % % % % % ",
"% % % % % % % % % % % % % % % % % % % % % % % % % % % % % % % % % % % % % % % % % % % % % % % % % % % % % % % % % % % % % % % % ",
"% % % % % % % % % % % % % % % % % % % % % % % % % % % % % % % % % % % % % % % % % % % % % % % % % % % % % % % % % % % % % % % % ",
"% % % % % % % % % % % % % % % % % % % % % % % % % % % % % % % % % % % % % % % % % % % % % % % % % % % % % % % % % % % % % % % % ",
"$ % % % % % % % % % % % % % % % % % % % % % % % % % % % % % % % % % % % % % % % % % % % % % % % % % % % % % % % % % % % % % % % ",
"# % % % % % / b f 9 k m , _ + t w _ e , M =.-.k ;.>.,.g % % % % % % % % % % % % % '.-.X ` ).u !.~.x x Y * {.].^.d /.(._.% % % % ",
"@ ; $ % % 3 7 a e h | . . . . . . . . . | | | . . . : :.% % % % % % % % % % % % % <.o . t w [.y 6 : r : ' ' r | ' 6 B }.9 % % % ",
"+ - ! / [ 2 6 | | . . . . . . . . . . . . . . . . . . :.% % % % % % % % % % % % % |.{ . . . . . . . . . . . . . | | | | 1./.2.b ",
". + ) ^ < 1 | | . . . . . . . . . . . . . . . . . . . 3.% % % % % % % % % % % % % 4.5.. . . . . . . . . . . . . . | | | | v 6.6.",
". . . ] : | . . . . . . . . . . . . . . . . . . . . | P % % % % % % % % % % % % % x : . . . . . . . . . . . . . . . | | | . | . ",
". . . . . . . . . . . . . . . . . . . . . . . . . . : 7.% % % % % % % % % % % % % :.r . . . . . . . . . . . . . . . . . . . . . ",
". . . . . . . . . . . . . . . . . . . . . . . . . . r 8.% % % % % % % % % % % % % ` h . . . . . . . . . . . . . . . . . . . . . ",
". . . . . . . . . . . . . . . . . . . . . . . . . . . X % % % % % % % % % % % % % I U . . . . . . . . . . . . . . . . . . . . . ",
". . . . . . . . . . . . . . . . . . . . . . . . . . t ` % % % % % % % % % % % % % %.v . . . . . . . . . . . . . . . . . . . . . ",
". . . . . . . . . . . . . . . . . . . . . . . . . . w ).% % % % % % % % % % % % % b ' . . . . . . . . . . . . . . . . . . . . . ",
". . . . . . . . . . . . . . . . . . . . . . . . . . [.u % % % % % % % % % % % % % &.+ . . . . . . . . . . . . . . . . . . . . . ",
". . . . . . . . . . . . . . . . . . . . . . . . . . y !.% % % % % % % % % % % % % *.V | . . . . . . . . . . . . . . . . . . . . ",
". . . . . . . . . . . . . . . . . . . . . . . . . . 6 ~.% % % % % % % % % % % % % @.W . . . . . . . . . . . . . . . . . . . . . ",
". . . . . . . . . . . . . . . . . . . . . . . . . . : x % % % % % % % % % % % % % ; A . . . . . . . . . . . . . . . . . . . . . ",
". . . . . . . . . . . . . . . . . . . . . . . . . . r x % % % % % % % % % % % % % +.X t . . . . . . . . . . . . . . . . . . . . ",
". . . . . . . . . . . . . . . . . . . . . . . . . . : Y % % % % % % % % % % % % % % Y ' . . . . . . . . . . . . . . . . . . . . ",
". . . . . . . . . . . . . . . . . . . . . . . . . . ' * % % % % % % % % % % % % % % Z . . . . . . . . . . . . . . . . . . . . . ",
". . . . . . . . . . . . . . . . . . . . . . . . . . ' {.% % % % % % % % % % % % % % ` 1 . . . . . . . . . . . . . . . . . . . . ",
". . . . . . . . . . . . . . . . . . . . . . . . . . r ].% % % % % % % % % % % % % % C G . . . . . . . . . . . . . . . . . . . . ",
". . . . . . . . . . . . . . . . . . . . . . . . . . | ^.% % % % % % % % % % % % % %  .O . . . . . . . . . . . . . . . . . . . . ",
". . . . . . . . . . . . . . . . . . . . . . . . . | ' d % % % % % % % % % % % % % % ..P . . . . . . . . . . . . . . . . . . . . ",
". . . . . . . . . . . . . . . . . . . . . . . . | | 6 /.% % % % % % % % % % % % % % % Q K . . . . . . . . . . . . . . . . . . . ",
". . . . . . . . . . . . . . . . . . . . . . . | | | B (.% % % % % % % % % % % % % % % % C G . . . . . . . . . . . . . . . . . . ",
". . . . . . . . . . . . . . . . . . . . . . . | | | }._.% % % % % % % % % % % % % % % % L H B . . . . . . . . . . . . . . . . . ",
". . . . . . . . . . . . . . . . . . . . . . . | | 1.9 % % % % % % % % % % % % % % % % % % % C y . . . . . . . . . . . . . . . . ",
". . . . . . . . . . . . . . . . . . . . . . . . v /.% % % % % % % % % % % % % % % % % % % % D z . . . . . . . . . . . . . . . . ",
". . . . . . . . . . . . . . . . . . . . . . . | 6.2.% % % % % % % % % % % % % % % % % % % l E v . . . . . . . . . . . . . . . . ",
". . . . . . . . . . . . . . . . . . . . . . . . 6.b % % % % % % % % % % % % % % % % % % L I e . . . . . . . . . . . . . . . . . "};
